<svg width="13" height="16" viewBox="0 0 13 16" fill="none" xmlns="http://www.w3.org/2000/svg">
<g opacity="0.8">
<path d="M4.4567 1.91334C4.70401 1.24503 5.64929 1.24503 5.89659 1.91334L6.84243 4.46933C6.92018 4.67945 7.08585 4.84511 7.29597 4.92286L9.85204 5.86866C10.5204 6.11596 10.5204 7.06121 9.85204 7.30851L7.29597 8.25431C7.08584 8.33206 6.92018 8.49772 6.84243 8.70783L5.89659 11.2638C5.64929 11.9321 4.70401 11.9321 4.4567 11.2638L3.51087 8.70783C3.43312 8.49772 3.26745 8.33206 3.05733 8.25431L0.501251 7.30851C-0.167084 7.06121 -0.167084 6.11596 0.501251 5.86866L3.05733 4.92286C3.26745 4.84511 3.43312 4.67945 3.51087 4.46933L4.4567 1.91334Z" fill="#9D26B0"/>
<path d="M10.0478 0.20505C10.149 -0.0683501 10.5357 -0.0683501 10.6369 0.20505L11.0238 1.25068C11.0556 1.33664 11.1234 1.40441 11.2093 1.43622L12.255 1.82314C12.5284 1.9243 12.5284 2.311 12.255 2.41216L11.2093 2.79908C11.1234 2.83089 11.0556 2.89866 11.0238 2.98461L10.6369 4.03025C10.5357 4.30365 10.149 4.30365 10.0478 4.03025L9.66087 2.98461C9.62907 2.89866 9.56129 2.83089 9.47533 2.79908L8.42967 2.41216C8.15626 2.311 8.15626 1.9243 8.42967 1.82314L9.47533 1.43622C9.56129 1.40441 9.62907 1.33664 9.66087 1.25068L10.0478 0.20505Z" fill="#9D26B0"/>
<path d="M9.44405 10.179C9.59019 9.78408 10.1488 9.78408 10.2949 10.179L10.8538 11.6894C10.8997 11.8135 10.9976 11.9114 11.1218 11.9573L12.6322 12.5162C13.0271 12.6624 13.0271 13.2209 12.6322 13.367L11.1218 13.9259C10.9976 13.9719 10.8997 14.0698 10.8538 14.1939L10.2949 15.7043C10.1488 16.0992 9.59019 16.0992 9.44405 15.7043L8.88515 14.1939C8.83921 14.0698 8.74131 13.9719 8.61715 13.9259L7.10674 13.367C6.71182 13.2209 6.71182 12.6624 7.10674 12.5162L8.61715 11.9573C8.74131 11.9114 8.83921 11.8135 8.88515 11.6894L9.44405 10.179Z" fill="#9D26B0"/>
</g>
</svg>
