<?xml version="1.0" encoding="utf-8"?>
<!-- Generator: Adobe Illustrator 24.1.2, SVG Export Plug-In . SVG Version: 6.00 Build 0)  -->
<svg version="1.1" id="Layer_1" xmlns="http://www.w3.org/2000/svg" xmlns:xlink="http://www.w3.org/1999/xlink" x="0px" y="0px"
	 viewBox="0 0 271.93 76.05" style="enable-background:new 0 0 271.93 76.05;" xml:space="preserve">
<style type="text/css">
	.st0{fill:#00262B;}
	.st1{fill:#FFFFFF;}
</style>
<g>
	<g>
		<path class="st0" d="M161.07,32.72c-3.8,0-6.52,1.93-6.94,4.57c-0.51,2.96,2.54,4.11,4.83,4.71l2.9,0.78
			c3.74,0.97,8.35,3.13,7.43,8.7c-0.9,5.24-5.67,9.06-12.93,9.06c-6.93,0-10.72-3.46-10.09-9.06h4.7c-0.31,3.37,2.43,4.97,6.02,4.97
			c3.97,0,7.19-2.01,7.67-5.01c0.48-2.73-1.9-3.84-5.09-4.71l-3.49-1c-4.73-1.36-7.38-3.87-6.69-8.17
			c0.92-5.35,6.24-8.88,12.44-8.88c6.28,0,9.98,3.6,9.34,8.73h-4.5C166.73,34.37,164.63,32.72,161.07,32.72z"/>
		<path class="st0" d="M186.76,40.47h-4.79l-2.13,12.76c-0.42,2.61,0.83,3.09,2.3,3.09c0.72,0,1.28-0.14,1.6-0.19l0.25,3.73
			c-0.6,0.2-1.62,0.47-3.07,0.48c-3.58,0.06-6.42-1.98-5.71-6.18l2.26-13.69h-3.38l0.59-3.62h3.38l0.92-5.56h4.51l-0.92,5.56h4.77
			L186.76,40.47z"/>
		<path class="st0" d="M206.59,36.84h4.53l-3.87,23.19h-4.44l0.68-4.02h-0.24c-1.45,2.48-4.19,4.32-7.67,4.32
			c-4.46,0-7.1-2.99-6.16-8.74l2.48-14.75h4.51l-2.37,14.21c-0.5,3.16,1.09,5.18,3.88,5.18c2.54,0,5.75-1.87,6.4-5.82L206.59,36.84z
			"/>
		<path class="st0" d="M213.82,48.48c1.25-7.52,6.11-11.94,11.73-11.94c4.3,0,5.42,2.63,5.98,4.06h0.27l1.92-11.49h4.51l-5.13,30.93
			h-4.41l0.6-3.61h-0.36c-1.07,1.48-3.16,4.06-7.37,4.06C215.92,60.49,212.6,55.99,213.82,48.48z M230.6,48.44
			c0.8-4.85-0.88-8.06-4.83-8.06c-4.06,0-6.6,3.46-7.35,8.06c-0.77,4.65,0.63,8.2,4.68,8.2C226.97,56.64,229.8,53.32,230.6,48.44z"
			/>
		<path class="st0" d="M242.97,36.84h4.51l-3.87,23.19h-4.51L242.97,36.84z M243.44,30.53c0.06-1.5,1.41-2.7,2.98-2.7
			c1.55,0,2.79,1.21,2.72,2.7c-0.06,1.48-1.41,2.69-2.98,2.69C244.6,33.22,243.37,32.01,243.44,30.53z"/>
		<path class="st0" d="M250.19,48.35c1.13-7.13,6.1-11.81,12.56-11.81c6.61,0,10.13,4.88,8.96,12.2
			c-1.17,7.08-6.13,11.76-12.57,11.76C252.49,60.5,248.99,55.63,250.19,48.35z M267.25,48.35c0.68-4.36-0.62-8.03-4.76-8.03
			c-4.36,0-7.13,3.87-7.85,8.41c-0.71,4.35,0.59,7.99,4.76,7.99C263.73,56.71,266.5,52.89,267.25,48.35z"/>
	</g>
	<g>
		<g>
			<polygon class="st0" points="86.45,12.49 89.06,0.02 12.55,0.02 0,59.95 63.97,59.95 60.45,76.03 121.72,76.03 135.24,12.49 			
				"/>
			<path class="st1" d="M26.07,52.3c-1.73,0-3.37-0.28-4.91-0.85c-1.54-0.57-2.89-1.41-4.03-2.51c-1.15-1.11-2.05-2.47-2.72-4.09
				c-0.67-1.62-1-3.48-1-5.58c0-2.87,0.4-5.49,1.2-7.85c0.8-2.36,1.91-4.38,3.34-6.07c1.43-1.69,3.14-2.99,5.13-3.92
				c1.99-0.92,4.18-1.39,6.55-1.39c1.6,0,3.12,0.28,4.55,0.84c1.44,0.56,2.69,1.37,3.77,2.44c1.08,1.07,1.94,2.38,2.57,3.95
				c0.64,1.56,0.95,3.35,0.95,5.38c0,0.31-0.01,0.67-0.03,1.08c-0.02,0.42-0.05,0.84-0.09,1.27c-0.04,0.43-0.08,0.86-0.11,1.27
				c-0.04,0.41-0.09,0.77-0.14,1.05H18.64c-0.02,0.27-0.03,0.53-0.04,0.78c-0.01,0.25-0.01,0.51-0.01,0.78
				c0,1.6,0.23,2.96,0.69,4.09c0.46,1.13,1.06,2.05,1.81,2.76c0.74,0.71,1.58,1.23,2.5,1.55s1.86,0.48,2.8,0.48
				c2.06,0,3.72-0.36,4.97-1.07c1.25-0.71,2.21-1.68,2.86-2.89h5.29c-0.33,1.2-0.87,2.31-1.62,3.35c-0.75,1.04-1.7,1.94-2.85,2.7
				c-1.15,0.76-2.48,1.36-3.99,1.79C29.55,52.09,27.88,52.3,26.07,52.3z M36.22,33.31c0.02-0.1,0.03-0.27,0.04-0.54
				c0.01-0.26,0.01-0.52,0.01-0.77c0-1.02-0.15-1.99-0.45-2.91c-0.3-0.91-0.75-1.72-1.35-2.41c-0.6-0.69-1.34-1.24-2.23-1.65
				c-0.89-0.4-1.92-0.61-3.09-0.61c-1.2,0-2.31,0.21-3.35,0.64c-1.04,0.42-1.99,1.03-2.83,1.81c-0.85,0.78-1.58,1.71-2.2,2.8
				c-0.62,1.09-1.11,2.3-1.47,3.63L36.22,33.31L36.22,33.31z"/>
			<path class="st1" d="M55.67,52.3c-1.56,0-3.03-0.29-4.4-0.88c-1.37-0.59-2.57-1.43-3.6-2.53c-1.03-1.1-1.85-2.43-2.44-3.99
				c-0.6-1.56-0.9-3.3-0.9-5.23c0-1.87,0.19-3.66,0.56-5.36c0.38-1.7,0.91-3.29,1.6-4.74c0.69-1.46,1.53-2.77,2.5-3.95
				c0.97-1.18,2.05-2.18,3.24-3.01s2.47-1.47,3.85-1.91c1.38-0.44,2.82-0.67,4.32-0.67c1.12,0,2.18,0.15,3.19,0.46
				c1.01,0.31,1.93,0.74,2.75,1.29c0.82,0.55,1.52,1.21,2.11,1.99c0.59,0.78,1.02,1.63,1.29,2.56h0.46l3.85-18.13h5.06l-9.25,43.54
				h-4.8l0.9-4.25H65.5c-1.14,1.48-2.56,2.65-4.28,3.51C59.5,51.87,57.65,52.3,55.67,52.3z M57.26,47.82c1.62,0,3.12-0.38,4.5-1.14
				c1.38-0.76,2.58-1.8,3.6-3.12c1.02-1.32,1.82-2.87,2.4-4.65c0.58-1.78,0.87-3.71,0.87-5.77c0-1.33-0.18-2.52-0.55-3.59
				c-0.37-1.06-0.89-1.96-1.56-2.7c-0.68-0.74-1.49-1.32-2.46-1.72c-0.96-0.41-2.05-0.61-3.27-0.61c-1.6,0-3.08,0.36-4.45,1.07
				c-1.37,0.71-2.55,1.7-3.56,2.98c-1,1.27-1.79,2.79-2.37,4.55c-0.58,1.76-0.87,3.7-0.87,5.8c0,1.31,0.19,2.51,0.57,3.61
				s0.9,2.04,1.58,2.82c0.68,0.78,1.48,1.39,2.43,1.82C55.05,47.6,56.1,47.82,57.26,47.82z"/>
			<g>
				<polygon class="st1" points="124.49,20.68 113.2,20.68 100.9,35.92 100.29,35.92 93.78,20.68 82.37,20.68 92.15,42.82 
					71.03,67.84 82.16,67.84 95.72,51.76 96.63,51.76 103.96,67.84 115.16,67.84 104.33,43.92 				"/>
			</g>
		</g>
		<g>
			<g>
				<path class="st0" d="M141.76,20.4c-0.55,0-1.07-0.1-1.55-0.31c-0.48-0.21-0.91-0.49-1.27-0.86c-0.37-0.37-0.65-0.79-0.86-1.27
					c-0.21-0.48-0.31-1-0.31-1.55c0-0.55,0.1-1.07,0.31-1.55c0.21-0.48,0.49-0.91,0.86-1.27c0.37-0.37,0.79-0.65,1.27-0.86
					c0.48-0.21,1-0.31,1.55-0.31c0.55,0,1.07,0.1,1.55,0.31c0.48,0.21,0.91,0.49,1.27,0.86c0.37,0.37,0.65,0.79,0.86,1.27
					c0.21,0.48,0.31,1,0.31,1.55c0,0.55-0.1,1.07-0.31,1.55c-0.21,0.48-0.49,0.91-0.86,1.27s-0.79,0.65-1.27,0.86
					C142.83,20.3,142.31,20.4,141.76,20.4z M141.76,19.66c0.6,0,1.15-0.15,1.64-0.44c0.49-0.29,0.88-0.69,1.18-1.18
					c0.29-0.49,0.44-1.04,0.44-1.64c0-0.6-0.15-1.15-0.44-1.64c-0.29-0.49-0.69-0.88-1.18-1.18c-0.49-0.29-1.04-0.44-1.64-0.44
					s-1.15,0.15-1.64,0.44c-0.49,0.29-0.88,0.69-1.18,1.18c-0.29,0.49-0.44,1.04-0.44,1.64c0,0.6,0.15,1.15,0.44,1.64
					c0.29,0.49,0.69,0.88,1.18,1.18C140.61,19.51,141.16,19.66,141.76,19.66z M140.4,18.2v-3.69h1.77c0.19,0,0.37,0.04,0.54,0.13
					c0.18,0.09,0.32,0.22,0.43,0.39c0.12,0.17,0.17,0.38,0.17,0.63c0,0.25-0.06,0.47-0.18,0.65c-0.12,0.18-0.27,0.32-0.45,0.42
					c-0.18,0.1-0.37,0.14-0.56,0.14h-1.37v-0.5h1.2c0.17,0,0.32-0.06,0.46-0.18c0.13-0.12,0.2-0.3,0.2-0.52c0-0.23-0.07-0.4-0.2-0.5
					s-0.28-0.15-0.44-0.15h-0.93v3.18H140.4z M142.55,16.49l0.92,1.71h-0.72l-0.89-1.71H142.55z"/>
			</g>
		</g>
	</g>
</g>
</svg>
