<svg width="140" height="138" viewBox="0 0 140 138" fill="none" xmlns="http://www.w3.org/2000/svg">
<path d="M120.224 67.1057H132.153C133.302 64.7431 133.534 62.0033 133.601 59.3412C133.662 56.9286 133.601 54.4717 132.869 52.1756C131.915 49.2328 129.873 46.7653 127.161 45.2769C124.45 43.7885 121.272 43.3915 118.277 44.1669C117.535 43.3026 116.543 42.6902 115.437 42.4144C114.378 42.187 111.233 42.492 111.2 43.5735C111.214 43.9124 111.317 44.2416 111.5 44.5274C112.581 46.5573 114.273 48.199 115.604 50.0736C118.737 54.3829 119.27 61.1825 120.224 67.1057Z" fill="white"/>
<path d="M132.154 67.3825H120.225C120.159 67.3822 120.095 67.3588 120.044 67.3162C119.993 67.2736 119.959 67.2147 119.947 67.1495C119.803 66.2233 119.665 65.2749 119.52 64.321C118.766 59.1576 117.984 53.8166 115.377 50.2338C114.906 49.5849 114.379 48.9471 113.874 48.326C112.883 47.1994 112.006 45.9769 111.257 44.6766C111.049 44.3429 110.935 43.9601 110.924 43.5674C110.932 43.4194 110.974 43.2752 111.047 43.1463C111.12 43.0173 111.222 42.9071 111.345 42.8242C112.266 42.0977 114.59 41.9479 115.499 42.142C116.604 42.417 117.602 43.0134 118.367 43.8558C121.206 43.1845 124.189 43.5136 126.813 44.7875C128.298 45.5253 129.621 46.5511 130.706 47.8051C131.79 49.059 132.615 50.5162 133.131 52.0918C133.89 54.4267 133.94 56.9613 133.879 59.3517C133.813 61.9972 133.585 64.7813 132.404 67.2105C132.384 67.2603 132.349 67.3031 132.305 67.3336C132.26 67.3641 132.208 67.3811 132.154 67.3825ZM120.458 66.8279H131.982C133.053 64.5318 133.258 61.8807 133.325 59.3517C133.397 56.6452 133.325 54.4101 132.604 52.2804C131.668 49.4078 129.672 47.0005 127.022 45.5494C124.372 44.0983 121.269 43.7127 118.345 44.4714C118.296 44.484 118.246 44.4835 118.198 44.4698C118.15 44.4561 118.107 44.4299 118.073 44.3938C117.372 43.5714 116.431 42.9895 115.383 42.7299C114.595 42.558 112.432 42.7299 111.684 43.2845C111.484 43.4454 111.478 43.5674 111.478 43.6062C111.499 43.8956 111.591 44.1756 111.745 44.4215C112.48 45.6881 113.336 46.8806 114.301 47.9821C114.812 48.6033 115.344 49.2522 115.827 49.9177C118.511 53.6059 119.304 59.0134 120.069 64.2434C120.197 65.1141 120.325 65.9793 120.458 66.8279Z" fill="#231F20"/>
<path d="M133.303 43.1517C134.795 41.9704 136.226 40.6504 137.973 39.9073C138.115 39.829 138.277 39.7942 138.439 39.8074C138.591 39.8442 138.726 39.9323 138.822 40.057C139.037 40.3293 139.183 40.649 139.25 40.9895C139.317 41.3301 139.301 41.6815 139.204 42.0148C139.004 42.6798 138.676 43.2995 138.239 43.8395C137.119 45.368 135.8 46.7407 134.318 47.9214C133.35 48.7718 132.194 49.3818 130.946 49.7017C129.238 50.0511 125.311 48.3706 127.064 46.0801C127.563 45.4257 128.728 45.5255 129.415 45.3425C130.843 44.8754 132.164 44.1309 133.303 43.1517Z" fill="white"/>
<path d="M130.434 50.0174C129.125 50.0174 127.328 49.2964 126.635 48.1983C126.411 47.8473 126.309 47.4324 126.344 47.0174C126.379 46.6024 126.549 46.2105 126.829 45.9022C127.251 45.3476 127.983 45.2644 128.626 45.1812C128.862 45.1587 129.095 45.1198 129.325 45.0647C130.72 44.6042 132.012 43.8772 133.13 42.9239L133.967 42.2528C135.135 41.2101 136.441 40.3346 137.85 39.6517C138.041 39.5535 138.257 39.513 138.471 39.5352C138.69 39.5787 138.886 39.6986 139.025 39.8736C139.273 40.18 139.442 40.5419 139.52 40.9283C139.597 41.3146 139.58 41.7139 139.469 42.092C139.257 42.7925 138.912 43.4458 138.454 44.0165C137.322 45.5656 135.986 46.9554 134.483 48.1484C133.48 49.0251 132.285 49.654 130.994 49.9841C130.81 50.0156 130.622 50.0268 130.434 50.0174ZM133.474 43.3621C132.298 44.3545 130.939 45.108 129.475 45.5805C129.22 45.6447 128.96 45.6892 128.698 45.7136C128.144 45.7857 127.55 45.8578 127.273 46.2183C127.065 46.4384 126.937 46.7209 126.907 47.0219C126.876 47.3229 126.947 47.6254 127.107 47.8822C127.761 48.9304 129.797 49.6236 130.889 49.4018C132.094 49.0898 133.21 48.499 134.145 47.677C135.612 46.5108 136.917 45.1549 138.027 43.6449C138.441 43.1342 138.754 42.5486 138.948 41.9201C139.034 41.6303 139.049 41.3241 138.993 41.0271C138.937 40.73 138.811 40.4506 138.626 40.2119C138.57 40.138 138.493 40.0836 138.404 40.0566C138.296 40.0559 138.189 40.0826 138.094 40.1342C136.72 40.8019 135.445 41.6567 134.306 42.6743L133.485 43.3399L133.474 43.3621Z" fill="#231F20"/>
<path d="M47.1929 31.1608C46.3055 27.1786 45.1242 23.2353 44.7692 19.17C44.4143 15.1047 44.9689 10.7954 47.2761 7.43442C48.1452 6.03031 49.465 4.9627 51.0197 4.40623C52.3841 3.99027 54.7245 4.75563 54.7245 4.75563C55.8567 3.928 57.0323 3.16154 58.2463 2.45954C60.8364 1.16729 63.7925 0.695867 66.6376 0.418561C70.7251 0.0247857 75.4615 0.235538 78.0571 3.41347C79.965 5.74839 80.1314 9.00397 80.209 12.0155L80.4142 19.7357" fill="white"/>
<path d="M47.1936 31.4379C47.1285 31.4369 47.0657 31.4139 47.0153 31.3726C46.965 31.3313 46.9301 31.2742 46.9163 31.2105C46.6834 30.1734 46.4338 29.1308 46.1787 28.0936C45.3893 25.17 44.8238 22.1905 44.4871 19.181C44.1987 15.8533 44.4039 11.1003 47.0439 7.25682C47.9471 5.80273 49.3152 4.69652 50.9262 4.11771C52.174 3.74057 54.1207 4.26745 54.6587 4.42829C55.7667 3.62567 56.9184 2.88506 58.1084 2.20984C60.8426 0.851036 63.9374 0.4018 66.5995 0.146678C72.2954 -0.407935 76.1111 0.607006 78.2464 3.24696C80.2985 5.75382 80.3927 9.37544 80.4648 12.0154L80.7255 19.719C80.727 19.7945 80.6988 19.8677 80.6469 19.9226C80.5951 19.9776 80.5237 20.01 80.4482 20.0129C80.4106 20.0144 80.3731 20.0084 80.3378 19.9952C80.3026 19.982 80.2703 19.9619 80.243 19.936C80.2156 19.9102 80.1936 19.8792 80.1784 19.8448C80.1632 19.8103 80.155 19.7732 80.1543 19.7356L79.9491 12.0099C79.8659 8.81528 79.644 5.76491 77.8637 3.58528C75.8394 1.10616 72.1845 0.15777 66.6938 0.690198C64.0816 0.94532 61.0534 1.38347 58.3746 2.70344C57.1741 3.39909 56.0115 4.15813 54.8916 4.97736C54.8552 5.0036 54.8131 5.02081 54.7688 5.02756C54.7244 5.03431 54.6791 5.03041 54.6365 5.01618C54.6365 5.01618 52.3626 4.28409 51.1036 4.66677C49.6182 5.21625 48.3564 6.24204 47.5153 7.58404C44.9696 11.2889 44.7755 15.9032 45.0583 19.1311C45.388 22.1122 45.9442 25.0639 46.7222 27.9605C46.9718 29.0032 47.2269 30.0403 47.4598 31.0885C47.468 31.125 47.4689 31.1626 47.4624 31.1994C47.4559 31.2362 47.4422 31.2713 47.4221 31.3027C47.402 31.3342 47.3759 31.3613 47.3452 31.3826C47.3146 31.4039 47.28 31.419 47.2435 31.4269L47.1936 31.4379Z" fill="#231F20"/>
<path d="M91.5179 137.491C88.7448 86.4115 93.1373 67.3882 90.9633 62.1305C85.8109 49.7515 55.6178 45.6973 55.6178 45.6973C55.6178 45.6973 22.9455 45.5309 15.6856 62.8293C13.8665 67.1775 1.26569 97.3595 0.0289045 115.983C-0.597808 125.295 9.08573 123.415 17.5159 124.197V137.508L91.5179 137.491Z" fill="#68E1FD"/>
<path d="M71.1799 68.7367L68.7008 72.142L78.3788 112.751L72.6496 124.281L64.2417 112.751L65.423 72.447L61.8125 68.293L67.0092 64.1777L71.1799 68.7367Z" fill="white"/>
<path d="M72.6496 124.563C72.6045 124.563 72.5599 124.552 72.5195 124.532C72.4791 124.512 72.4439 124.483 72.4167 124.447L64.0143 112.916C63.9741 112.866 63.9543 112.803 63.9588 112.739L65.1346 72.5458L61.5962 68.475C61.5708 68.4464 61.5513 68.413 61.539 68.3768C61.5266 68.3407 61.5215 68.3024 61.5241 68.2642C61.5349 68.1862 61.5744 68.115 61.635 68.0645L66.8317 63.9549C66.8877 63.9089 66.9591 63.8862 67.0314 63.8913C67.1036 63.8965 67.1711 63.9292 67.22 63.9826L71.3906 68.5415C71.4326 68.5922 71.4555 68.656 71.4555 68.7218C71.4555 68.7876 71.4326 68.8513 71.3906 68.902L69.0114 72.202L78.6561 112.689C78.6811 112.751 78.6811 112.821 78.6561 112.883L72.9047 124.408C72.8832 124.452 72.8502 124.49 72.8093 124.517C72.7684 124.544 72.7209 124.56 72.6718 124.563H72.6496ZM64.5301 112.689L72.5997 123.781L78.0737 112.766L68.4235 72.2796C68.4147 72.2395 68.4146 72.1979 68.4232 72.1577C68.4319 72.1176 68.449 72.0797 68.4734 72.0467L70.8138 68.8299L66.9759 64.637L62.2229 68.3197L65.6393 72.2463C65.688 72.299 65.7139 72.3688 65.7114 72.4404L64.5301 112.689Z" fill="#231F20"/>
<path d="M74.2752 48.2156L75.5897 56.7566C75.5897 56.7566 73.6485 66.0298 64.2478 63.8501C61.5038 63.2106 58.9391 61.9611 56.7441 60.1944C54.5492 58.4278 52.7805 56.1893 51.5694 53.6453L50.5156 33.7846C50.5156 33.7846 57.4316 30.0077 55.2465 14.9277C55.2465 14.9277 65.7176 19.9914 79.6494 18.089C79.6494 18.089 82.9771 33.6182 81.9344 40.8892C80.8918 48.1601 74.2752 48.2156 74.2752 48.2156Z" fill="white"/>
<path d="M66.9759 64.465C66.0417 64.4577 65.1114 64.3442 64.2029 64.1266C61.4202 63.4641 58.8205 62.1886 56.5935 60.3934C54.3665 58.5982 52.5684 56.3285 51.3303 53.7498C51.3246 53.7187 51.3246 53.6867 51.3303 53.6555L50.2211 33.7949C50.2183 33.7416 50.231 33.6887 50.2576 33.6425C50.2841 33.5962 50.3234 33.5586 50.3708 33.5342C50.4374 33.4954 57.0872 29.6519 54.9575 14.9713C54.9522 14.9198 54.9602 14.8679 54.9806 14.8204C55.0009 14.7728 55.0331 14.7312 55.0739 14.6995C55.1186 14.6737 55.1693 14.6602 55.2209 14.6602C55.2725 14.6602 55.3232 14.6737 55.3679 14.6995C63.0294 17.8766 71.4001 18.9507 79.6156 17.8109C79.6872 17.8008 79.7601 17.818 79.8197 17.8591C79.8793 17.9002 79.9212 17.9622 79.9372 18.0328C80.0703 18.6706 83.2649 33.6895 82.2222 40.9327C81.2794 47.4162 75.9828 48.3535 74.624 48.481L75.8941 56.7115C75.8996 56.7464 75.8996 56.7819 75.8941 56.8168C75.8553 56.9888 74.9734 61.0264 71.6014 63.1783C70.2185 64.05 68.6104 64.4973 66.9759 64.465ZM51.8516 53.5779C53.0575 56.0627 54.8015 58.2478 56.9571 59.9746C59.1126 61.7014 61.6257 62.9265 64.3138 63.5609C67.0314 64.1932 69.3774 63.8993 71.2686 62.6957C74.2469 60.799 75.1897 57.1995 75.3007 56.7392L73.9918 48.2536C73.9845 48.213 73.9862 48.1713 73.9967 48.1314C74.0073 48.0914 74.0265 48.0543 74.0529 48.0226C74.0793 47.9909 74.1124 47.9654 74.1497 47.9478C74.1871 47.9302 74.2278 47.921 74.2691 47.9209C74.5298 47.9209 80.6305 47.7822 81.6454 40.844C82.616 34.1886 79.8485 20.462 79.427 18.4099C71.3617 19.4441 63.1659 18.4077 55.6119 15.3984C57.431 29.0086 51.8849 33.268 50.809 33.9335L51.8516 53.5779Z" fill="#231F20"/>
<path d="M69.4557 27.1836C69.4557 27.1836 73.8926 35.3697 72.5671 36.612C71.2415 37.8543 67.8584 36.612 67.8584 36.612" fill="white"/>
<path d="M70.7032 37.4273C69.701 37.3919 68.7099 37.205 67.7637 36.8727C67.7297 36.8609 67.6984 36.8424 67.6715 36.8184C67.6447 36.7944 67.6229 36.7653 67.6075 36.7328C67.592 36.7003 67.5831 36.665 67.5814 36.629C67.5796 36.5931 67.5851 36.5571 67.5973 36.5233C67.6225 36.454 67.6736 36.3973 67.7399 36.3652C67.8062 36.3331 67.8824 36.3281 67.9523 36.3513C67.9856 36.3513 71.169 37.4606 72.3892 36.3846C73.21 35.6359 71.0304 30.6222 69.2224 27.3056C69.187 27.2409 69.1789 27.1648 69.1997 27.0941C69.2205 27.0233 69.2686 26.9638 69.3333 26.9285C69.398 26.8932 69.4741 26.885 69.5448 26.9058C69.6155 26.9266 69.6751 26.9747 69.7104 27.0394C70.4702 28.437 74.2028 35.4806 72.7663 36.7895C72.1806 37.2489 71.446 37.476 70.7032 37.4273Z" fill="#231F20"/>
<path d="M62.6288 27.2814C63.1368 27.26 63.5089 26.2974 63.4598 25.1314C63.4107 23.9654 62.9591 23.0376 62.4511 23.0589C61.9431 23.0803 61.571 24.0429 61.6201 25.2089C61.6692 26.3748 62.1208 27.3027 62.6288 27.2814Z" fill="#231F20"/>
<path d="M76.2938 28.1307C76.8023 28.1104 77.1766 27.1478 77.1299 25.9808C77.0833 24.8138 76.6332 23.8842 76.1248 23.9046C75.6163 23.9249 75.2419 24.8875 75.2886 26.0545C75.3353 27.2215 75.7853 28.1511 76.2938 28.1307Z" fill="#231F20"/>
<path d="M56.538 29.9008C55.7067 28.4818 54.611 27.2355 53.3102 26.2292C52.6358 25.6371 51.7953 25.2672 50.9031 25.1699C50.1711 25.1765 49.4559 25.3899 48.84 25.7855C47.9165 26.3302 47.1178 27.063 46.4958 27.9363C45.8738 28.8096 45.4423 29.8039 45.2295 30.8547C45.0245 31.8288 45.0626 32.8383 45.3404 33.7942C45.8762 35.2735 46.912 36.5192 48.2687 37.3159C49.6175 38.0956 51.0525 38.7154 52.5448 39.1628" fill="white"/>
<path d="M52.535 39.4811H52.4407C50.9274 39.0235 49.472 38.3926 48.1036 37.601C46.6892 36.7725 45.6113 35.4727 45.0588 33.9294C44.7654 32.927 44.7254 31.8675 44.9423 30.8458C45.1624 29.7536 45.6107 28.7202 46.2577 27.8132C46.9047 26.9063 47.736 26.1461 48.697 25.5825C49.3588 25.1576 50.129 24.9323 50.9155 24.9336C51.864 25.0347 52.7595 25.4215 53.4834 26.0428C54.822 27.0706 55.9516 28.3451 56.811 29.7976C56.822 29.8581 56.8134 29.9205 56.7864 29.9758C56.7594 30.031 56.7154 30.0762 56.6609 30.1047C56.6064 30.1332 56.5442 30.1435 56.4834 30.1342C56.4226 30.1248 56.3664 30.0963 56.323 30.0527C55.5089 28.665 54.4357 27.4468 53.1617 26.4643C52.5367 25.9202 51.7649 25.5729 50.9432 25.466C50.2674 25.4649 49.6053 25.6574 49.0354 26.0206C48.1443 26.5436 47.3736 27.2486 46.7735 28.0896C46.1733 28.9305 45.7572 29.8886 45.5524 30.9012C45.3586 31.8202 45.3948 32.7727 45.6578 33.6743C46.1618 35.0838 47.1428 36.2727 48.4308 37.0353C49.7524 37.826 51.1613 38.4607 52.6292 38.9265C52.6647 38.9384 52.6974 38.9571 52.7255 38.9817C52.7536 39.0063 52.7766 39.0362 52.7931 39.0697C52.8096 39.1033 52.8193 39.1397 52.8217 39.177C52.824 39.2143 52.8189 39.2517 52.8067 39.287C52.7872 39.3435 52.7505 39.3926 52.7018 39.4274C52.6531 39.4622 52.5948 39.4809 52.535 39.4811Z" fill="#231F20"/>
<path d="M74.2755 48.2144C68.8767 49.0442 63.354 48.1331 58.5078 45.6133C58.5078 45.6133 66.5442 57.9701 75.5122 56.2286L74.2755 48.2144Z" fill="#231F20"/>
<path d="M73.7802 56.6729C70.508 56.6729 66.9751 55.0091 63.4589 51.7813C61.5109 49.9755 59.7715 47.957 58.2732 45.7637C58.2372 45.7157 58.2178 45.6573 58.2178 45.5973C58.2178 45.5373 58.2372 45.4789 58.2732 45.4309C58.3136 45.3847 58.3685 45.3534 58.429 45.3423C58.4894 45.3313 58.5518 45.341 58.606 45.3699C63.3994 47.8442 68.8507 48.7446 74.1851 47.9433C74.2222 47.9352 74.2607 47.9349 74.2979 47.9426C74.3352 47.9502 74.3704 47.9656 74.4014 47.9877C74.4323 48.0086 74.4586 48.0356 74.4787 48.0671C74.4987 48.0986 74.512 48.1339 74.5178 48.1707L75.7546 56.1849C75.766 56.2561 75.7492 56.3289 75.7078 56.3879C75.6664 56.4469 75.6036 56.4875 75.5328 56.501C74.9552 56.6125 74.3685 56.6701 73.7802 56.6729ZM59.3603 46.3294C61.3624 49.0526 68.0067 57.1721 75.2056 56.0019L74.0686 48.5368C69.052 49.2248 63.9433 48.4587 59.3492 46.3294H59.3603Z" fill="#231F20"/>
<path d="M118.239 41.6286L118.112 41.8303C117.839 42.2632 117.405 42.57 116.906 42.6831C116.406 42.7961 115.883 42.7062 115.45 42.4331L102.493 34.2613L104.679 30.7946L117.631 38.9635C118.064 39.2366 118.371 39.6705 118.484 40.1697C118.597 40.6689 118.507 41.1927 118.234 41.6256L118.239 41.6286Z" fill="white"/>
<path d="M116.464 43.0063C116.049 43.0063 115.642 42.8869 115.293 42.6624L102.354 34.4874C102.322 34.4688 102.294 34.4433 102.273 34.4125C102.252 34.3818 102.238 34.3468 102.232 34.31C102.224 34.2753 102.222 34.2392 102.228 34.204C102.234 34.1687 102.247 34.135 102.266 34.1048L104.451 30.6329C104.49 30.5712 104.553 30.5278 104.625 30.5122C104.697 30.4966 104.772 30.5101 104.833 30.5497L117.773 38.7247C118.266 39.0384 118.616 39.5343 118.746 40.1045C118.875 40.6747 118.775 41.2731 118.466 41.7695L118.338 41.9747C118.025 42.4697 117.528 42.8206 116.957 42.9508C116.795 42.9857 116.63 43.0043 116.464 43.0063ZM102.865 34.1713L115.587 42.191C115.77 42.3091 115.975 42.389 116.189 42.4262C116.404 42.4634 116.623 42.4569 116.835 42.4073C117.265 42.318 117.641 42.0629 117.883 41.6974L118.011 41.4978C118.242 41.1263 118.317 40.6788 118.221 40.2522C118.124 39.8256 117.864 39.4542 117.495 39.2183L104.756 31.1598L102.865 34.1713Z" fill="#231F20"/>
<path d="M103.243 36.8104L106.753 31.1816L103.59 29.2093L100.08 34.838L103.243 36.8104Z" fill="white"/>
<path d="M102.91 36.2902C102.857 36.2901 102.805 36.2747 102.76 36.2459L99.6154 34.2603C99.5843 34.2411 99.5575 34.2159 99.5362 34.1862C99.515 34.1565 99.4998 34.123 99.4915 34.0874C99.4833 34.0519 99.4822 34.015 99.4882 33.979C99.4942 33.943 99.5072 33.9086 99.5266 33.8777L103.059 28.2816C103.078 28.25 103.103 28.2226 103.133 28.2009C103.162 28.1792 103.196 28.1638 103.232 28.1555C103.268 28.1472 103.305 28.1462 103.341 28.1526C103.377 28.1591 103.411 28.1728 103.442 28.1929L106.587 30.1784C106.618 30.197 106.645 30.2219 106.666 30.2515C106.687 30.2811 106.702 30.3147 106.709 30.3503C106.726 30.4222 106.714 30.4979 106.676 30.5611L103.137 36.1516C103.098 36.2133 103.036 36.2571 102.965 36.2736L102.91 36.2902ZM100.137 33.9331L102.815 35.597L106.054 30.4668L103.376 28.8029L100.137 33.9331Z" fill="#231F20"/>
<path d="M134.967 53.4816L136.008 51.8304C136.696 50.7397 136.37 49.2978 135.279 48.6099L117.195 37.2042C116.104 36.5162 114.662 36.8428 113.975 37.9335L112.933 39.5847C112.245 40.6755 112.572 42.1173 113.662 42.8053L131.746 54.211C132.837 54.8989 134.279 54.5724 134.967 53.4816Z" fill="white"/>
<path d="M132.98 54.8419C132.489 54.8412 132.008 54.7008 131.593 54.4371L113.513 43.0287C113.223 42.8456 112.971 42.6071 112.773 42.3268C112.575 42.0465 112.434 41.7299 112.358 41.3952C112.283 41.0604 112.274 40.7139 112.332 40.3756C112.39 40.0374 112.514 39.7139 112.698 39.4237L113.735 37.7599C114.107 37.1758 114.694 36.7623 115.369 36.6095C116.045 36.4568 116.753 36.5773 117.34 36.9446L135.42 48.353C135.711 48.536 135.962 48.7745 136.16 49.0548C136.358 49.3351 136.499 49.6517 136.575 49.9865C136.651 50.3213 136.66 50.6677 136.601 51.006C136.543 51.3443 136.419 51.6678 136.236 51.9579L135.198 53.6218C135.012 53.9153 134.769 54.1686 134.483 54.3667C134.197 54.5648 133.875 54.7038 133.535 54.7754C133.353 54.8177 133.167 54.84 132.98 54.8419ZM115.948 37.0943C115.599 37.0937 115.256 37.1813 114.951 37.3491C114.645 37.5169 114.387 37.7593 114.201 38.0538L113.164 39.7176C113.018 39.9458 112.92 40.2007 112.874 40.4673C112.828 40.7339 112.836 41.007 112.897 41.2706C112.957 41.5343 113.068 41.7836 113.224 42.0044C113.38 42.2252 113.578 42.4131 113.807 42.5573L131.887 53.9601C132.35 54.2505 132.91 54.3458 133.443 54.2252C133.976 54.1047 134.439 53.7781 134.733 53.3167L135.77 51.6529C135.914 51.4243 136.012 51.1694 136.058 50.9029C136.104 50.6364 136.096 50.3635 136.037 50.0997C135.977 49.836 135.866 49.5867 135.709 49.3659C135.553 49.1452 135.355 48.9574 135.126 48.8133L117.046 37.4104C116.715 37.2107 116.334 37.1088 115.948 37.1165V37.0943Z" fill="#231F20"/>
<path d="M73.8929 13.7963C72.0385 16.7361 71.0974 20.1599 71.1887 23.6345C71.2799 27.1092 72.3994 30.4788 74.4056 33.3173C76.4117 36.1557 79.2145 38.3356 82.4595 39.5813C85.7045 40.827 89.246 41.0826 92.6362 40.3157C96.0264 39.5487 99.1131 37.7938 101.506 35.2728C103.899 32.7517 105.491 29.5778 106.08 26.1522C106.669 22.7266 106.229 19.2033 104.816 16.0276C103.403 12.852 101.08 10.1667 98.1406 8.31116C94.1972 5.82519 89.4282 5.00652 84.8815 6.03504C80.3348 7.06355 76.3824 9.85512 73.8929 13.7963Z" fill="white"/>
<path d="M88.7281 41.0282C85.5365 41.026 82.4039 40.1678 79.6569 38.5429C76.9098 36.918 74.649 34.586 73.1099 31.79C71.5709 28.994 70.81 25.8364 70.9066 22.6462C71.0032 19.4561 71.9538 16.3503 73.6592 13.6525C75.3158 11.0255 77.629 8.87609 80.3704 7.41656C83.1118 5.95703 86.1865 5.23788 89.2908 5.33015C92.3952 5.42241 95.4217 6.3229 98.0716 7.94267C100.721 9.56244 102.903 11.8455 104.401 14.5662C105.898 17.287 106.66 20.3513 106.611 23.4567C106.562 26.562 105.704 29.6008 104.121 32.273C102.539 34.9452 100.286 37.1583 97.5868 38.6938C94.8872 40.2292 91.8338 41.0339 88.7281 41.0282ZM74.1251 13.9687C71.9886 17.3543 71.0921 21.376 71.5884 25.3485C72.0847 29.321 73.943 32.9986 76.8468 35.7545C79.7507 38.5104 83.5202 40.1742 87.5132 40.4624C91.5062 40.7506 95.4756 39.6453 98.7451 37.3349C102.015 35.0245 104.382 31.6519 105.443 27.7918C106.505 23.9317 106.195 19.823 104.567 16.1656C102.939 12.5083 100.093 9.5287 96.5138 7.73452C92.935 5.94033 88.8447 5.44258 84.9401 6.32609C80.4656 7.34163 76.5763 10.09 74.1251 13.9687Z" fill="#231F20"/>
<path d="M96.1767 11.4151C98.5033 12.8817 100.343 15.0053 101.462 17.5173C102.582 20.0294 102.931 22.817 102.467 25.5277C102.002 28.2384 100.743 30.7504 98.8509 32.7459C96.9582 34.7414 94.5163 36.1308 91.834 36.7383C89.1517 37.3458 86.3494 37.1442 83.7817 36.159C81.2139 35.1738 78.996 33.4492 77.4085 31.2033C75.821 28.9575 74.9352 26.2913 74.8632 23.542C74.7911 20.7926 75.536 18.0837 77.0037 15.7578C78.9709 12.6401 82.0957 10.4313 85.6911 9.61697C89.2865 8.80264 93.0581 9.44943 96.1767 11.4151Z" fill="white"/>
<path d="M88.7396 37.3551C86.5396 37.3555 84.3697 36.844 82.4015 35.8612C80.4332 34.8783 78.7207 33.451 77.3992 31.6921C76.0777 29.9333 75.1835 27.8911 74.7874 25.727C74.3913 23.563 74.5041 21.3365 75.1169 19.2236C75.7297 17.1107 76.8256 15.1693 78.3181 13.553C79.8106 11.9366 81.6586 10.6897 83.7161 9.9108C85.7736 9.13188 87.9841 8.84233 90.1728 9.06504C92.3614 9.28775 94.4683 10.0166 96.3267 11.194C98.9307 12.8334 100.931 15.2756 102.024 18.1518C103.118 21.028 103.246 24.1819 102.389 27.1373C101.533 30.0927 99.7374 32.6891 97.275 34.5344C94.8126 36.3797 91.8167 37.3736 88.7396 37.3662V37.3551ZM88.784 9.53016C87.7633 9.5303 86.7458 9.64377 85.7502 9.86848C82.6739 10.5638 79.9339 12.3044 77.997 14.7935C76.0601 17.2826 75.0462 20.3663 75.128 23.5192C75.2099 26.6721 76.3824 29.699 78.4458 32.0843C80.5093 34.4696 83.3359 36.0656 86.4442 36.6004C89.5525 37.1352 92.75 36.5757 95.492 35.0172C98.234 33.4588 100.351 30.9978 101.482 28.0536C102.613 25.1094 102.688 21.8642 101.694 18.8708C100.701 15.8775 98.6998 13.3213 96.0328 11.6377C93.8652 10.2621 91.3512 9.53117 88.784 9.53016Z" fill="#D1D3D4"/>
<path d="M74.5586 39.1636C74.5586 39.1636 64.9582 46.612 61.1758 32.1699L74.5586 39.1636Z" fill="white"/>
<path d="M69.1671 41.365C68.4582 41.3666 67.7538 41.2523 67.0818 41.0266C64.2588 40.0672 62.1845 37.1111 60.9089 32.236C60.8905 32.1625 60.9021 32.0846 60.9411 32.0196C60.9801 31.9546 61.0434 31.9078 61.1169 31.8894C61.1905 31.871 61.2683 31.8826 61.3333 31.9216C61.3983 31.9606 61.4452 32.0238 61.4635 32.0974C62.6837 36.7783 64.6415 39.6068 67.2759 40.4998C70.7866 41.6977 74.3694 38.9746 74.4027 38.9468C74.4314 38.9243 74.4644 38.9076 74.4996 38.8977C74.5348 38.8879 74.5716 38.8851 74.6079 38.8894C74.6442 38.8938 74.6793 38.9053 74.7112 38.9232C74.7431 38.9412 74.7711 38.9652 74.7937 38.994C74.8162 39.0228 74.8329 39.0557 74.8428 39.0909C74.8526 39.1261 74.8554 39.1629 74.8511 39.1993C74.8467 39.2356 74.8352 39.2706 74.8173 39.3025C74.7993 39.3344 74.7753 39.3624 74.7465 39.385C73.1263 40.5875 71.1829 41.2771 69.1671 41.365Z" fill="#231F20"/>
<path d="M123.541 46.8287C124.14 46.5514 124.306 45.7861 124.328 45.1205C124.366 43.8672 124.153 42.619 123.702 41.449L125.887 46.2575C126.251 47.2195 126.799 48.1012 127.501 48.8531C127.859 49.222 128.314 49.481 128.814 49.5999C129.314 49.7188 129.838 49.6925 130.324 49.5242C131.682 48.9141 131.91 47.0839 131.721 45.6086C131.552 44.2295 131.187 42.8813 130.64 41.6043C130.22 40.4531 129.46 39.457 128.46 38.748C127.423 38.1047 125.948 38.0548 125.077 38.8978C124.123 37.4391 122.154 34.8158 120.047 35.3372C118.666 35.6755 118.827 36.4464 119.104 37.7165C119.486 39.4302 121.112 47.9657 123.541 46.8287Z" fill="white"/>
<path d="M129.497 49.9722C128.681 49.9441 127.903 49.6164 127.312 49.0516C126.59 48.2725 126.025 47.361 125.648 46.3673L124.595 44.0434C124.624 44.4124 124.633 44.7827 124.622 45.1527C124.589 46.1565 124.262 46.8165 123.674 47.1049C123.496 47.195 123.299 47.242 123.1 47.242C122.901 47.242 122.704 47.195 122.526 47.1049C120.862 46.273 119.753 41.9359 118.949 38.2311L118.849 37.7874C118.588 36.6005 118.339 35.4802 119.997 35.0753C121.655 34.6705 123.375 35.8629 125.149 38.4973C125.669 38.1684 126.271 37.9938 126.885 37.9938C127.5 37.9938 128.102 38.1684 128.621 38.4973C129.673 39.2334 130.472 40.2751 130.912 41.4811C131.468 42.7822 131.841 44.1541 132.021 45.5575C132.121 46.3395 132.298 48.9462 130.463 49.7615C130.16 49.9011 129.831 49.973 129.497 49.9722ZM123.702 41.1705C123.754 41.1702 123.806 41.1853 123.85 41.2139C123.895 41.2424 123.93 41.2832 123.951 41.3314L126.137 46.1399C126.492 47.0654 127.019 47.9158 127.689 48.6467C128.008 48.9792 128.414 49.2141 128.861 49.3241C129.308 49.4341 129.777 49.4146 130.213 49.2679C131.699 48.6023 131.533 46.3229 131.45 45.6407C131.279 44.287 130.92 42.9636 130.385 41.7085C129.99 40.609 129.268 39.6567 128.316 38.9798C127.451 38.4252 126.098 38.3032 125.266 39.0963C125.237 39.1257 125.203 39.148 125.164 39.1615C125.126 39.175 125.084 39.1793 125.044 39.1739C125.004 39.169 124.965 39.1556 124.931 39.1345C124.896 39.1135 124.867 39.0853 124.844 39.0519C123.663 37.2383 121.883 35.1696 120.113 35.6022C119.037 35.8684 119.082 36.3343 119.376 37.6543L119.47 38.1035C119.875 39.9947 121.106 45.7461 122.759 46.5725C122.862 46.6259 122.976 46.6538 123.092 46.6538C123.208 46.6538 123.322 46.6259 123.424 46.5725C123.907 46.3451 124.035 45.6518 124.051 45.1083C124.089 43.8907 123.881 42.678 123.441 41.5421C123.428 41.509 123.421 41.4735 123.421 41.4377C123.421 41.4019 123.428 41.3665 123.442 41.3335C123.456 41.3005 123.476 41.2706 123.502 41.2455C123.527 41.2204 123.558 41.2006 123.591 41.1872C123.626 41.1738 123.664 41.1681 123.702 41.1705Z" fill="#231F20"/>
<path d="M116.22 44.7754C116.22 44.7754 122.875 47.2434 123.613 54.5699L116.22 44.7754Z" fill="white"/>
<path d="M123.58 54.8476C123.512 54.8479 123.446 54.8223 123.395 54.776C123.345 54.7298 123.314 54.6662 123.308 54.5981C122.604 47.5379 116.159 45.0587 116.098 45.0365C116.03 45.0093 115.975 44.9563 115.944 44.889C115.914 44.8217 115.912 44.7452 115.937 44.676C115.963 44.6079 116.015 44.5529 116.082 44.5228C116.148 44.4927 116.224 44.4899 116.292 44.5152C116.364 44.5152 123.125 47.1274 123.863 54.5426C123.867 54.5791 123.863 54.6159 123.853 54.651C123.842 54.6861 123.825 54.7188 123.802 54.7472C123.778 54.7755 123.75 54.799 123.717 54.8163C123.685 54.8335 123.65 54.8442 123.613 54.8476H123.58Z" fill="#231F20"/>
<path d="M86.3045 56.3965C86.3045 56.3965 114.068 82.4633 114.357 80.7551C116.193 70.0677 117.651 60.9277 117.651 60.9277L135.765 61.6653C135.765 61.6653 135.765 112.69 123.563 113.926C114.324 114.858 82.1172 84.7039 82.1172 84.7039L86.3045 56.3965Z" fill="#68E1FD"/>
<path d="M90.9456 126.693C90.8738 126.692 90.805 126.664 90.7527 126.615C90.7004 126.565 90.6683 126.498 90.6628 126.427L85.5049 65.7133C85.5166 65.6512 85.5485 65.5946 85.5955 65.5524C85.6426 65.5101 85.7022 65.4845 85.7653 65.4794C85.8283 65.4744 85.8912 65.4902 85.9444 65.5244C85.9976 65.5587 86.038 65.6095 86.0595 65.6689L91.2618 126.382C91.2648 126.42 91.2605 126.457 91.249 126.492C91.2375 126.528 91.2191 126.561 91.1949 126.589C91.1707 126.617 91.1411 126.641 91.1078 126.658C91.0745 126.675 91.0383 126.685 91.0011 126.687L90.9456 126.693Z" fill="#231F20"/>
<path d="M48.5572 125.405L12.6516 124.235C12.6137 124.234 12.5764 124.225 12.542 124.209C12.5075 124.193 12.4766 124.171 12.4508 124.143C12.4251 124.115 12.405 124.082 12.3919 124.047C12.3788 124.011 12.3728 123.973 12.3742 123.936C12.3799 123.86 12.4139 123.79 12.4694 123.738C12.525 123.687 12.598 123.658 12.6737 123.658L48.2965 124.823L49.3115 105.744L24.4704 102.805C24.4307 102.799 24.3926 102.785 24.3584 102.764C24.3241 102.743 24.2943 102.715 24.2707 102.683C24.2486 102.65 24.2332 102.613 24.2256 102.574C24.218 102.535 24.2182 102.494 24.2263 102.455C27.4597 88.7953 32.2571 68.1194 32.2017 67.1488C32.185 67.076 32.1978 66.9996 32.2373 66.9362C32.2768 66.8728 32.3397 66.8276 32.4124 66.8105C32.488 66.7954 32.5665 66.81 32.6316 66.8513C32.6967 66.8927 32.7433 66.9575 32.7618 67.0323C32.9726 67.8753 26.3838 95.8334 24.8586 102.272L49.6442 105.212C49.7163 105.22 49.7824 105.256 49.8289 105.312C49.8753 105.368 49.8986 105.439 49.8938 105.511L48.8511 125.134C48.8468 125.208 48.8138 125.278 48.759 125.329C48.7042 125.379 48.6318 125.407 48.5572 125.405Z" fill="#231F20"/>
<path d="M72.8604 85.8398L106.708 92.0349L97.0582 137.491L61.8125 133.403L72.8604 85.8398Z" fill="#231F20"/>
<path d="M97.0648 137.767H97.0315L61.7803 133.686C61.7419 133.68 61.7049 133.667 61.6716 133.647C61.6383 133.627 61.6093 133.6 61.5862 133.569C61.5645 133.537 61.5495 133.501 61.5418 133.463C61.5342 133.424 61.5342 133.385 61.5419 133.347L72.5897 85.778C72.6057 85.7081 72.6481 85.6471 72.7081 85.6078C72.7681 85.5686 72.841 85.554 72.9114 85.5673L106.743 91.7679C106.779 91.7737 106.813 91.7871 106.844 91.8072C106.875 91.8273 106.901 91.8536 106.92 91.8843C106.962 91.9482 106.978 92.0255 106.965 92.1006L97.3144 137.551C97.3015 137.609 97.2703 137.662 97.2253 137.701C97.1804 137.739 97.1241 137.763 97.0648 137.767ZM62.1519 133.164L96.843 137.185L106.377 92.2615L73.0723 86.1607L62.1519 133.164Z" fill="#231F20"/>
<path d="M77.0483 106.916C76.7876 103.948 67.1595 107.986 67.1595 107.986C67.1595 107.986 69.8772 101.797 68.4185 100.671C66.9599 99.5448 62.0571 106.988 62.0571 106.988C57.9405 107.625 53.7827 107.959 49.6171 107.986L48.752 121.796C62.5618 120.798 71.5188 120.404 71.9459 119.516C72.7889 117.747 77.309 109.883 77.0483 106.916Z" fill="white"/>
<path d="M48.7519 122.046C48.7189 122.047 48.686 122.041 48.6554 122.029C48.6248 122.016 48.5972 121.998 48.5744 121.974C48.5475 121.949 48.5266 121.919 48.5132 121.886C48.4997 121.852 48.4941 121.816 48.4967 121.78L49.3619 107.97C49.3674 107.905 49.3965 107.845 49.4437 107.801C49.4908 107.757 49.5526 107.732 49.6171 107.731C53.7321 107.706 57.8399 107.38 61.9073 106.755C62.5506 105.796 66.0613 100.621 67.886 100.316C68.0051 100.292 68.128 100.293 68.2465 100.32C68.3651 100.347 68.4766 100.398 68.5737 100.471C69.9214 101.514 68.302 105.884 67.6309 107.52C69.4278 106.816 74.8963 104.819 76.6822 105.895C76.8601 105.998 77.0099 106.142 77.1183 106.316C77.2267 106.491 77.2903 106.689 77.3033 106.894C77.5196 109.412 74.5303 115.119 72.9163 118.186C72.5836 118.812 72.3229 119.295 72.1732 119.622C71.7905 120.426 67.8472 120.731 56.5053 121.508C54.1427 121.669 51.5582 121.846 48.7408 122.062L48.7519 122.046ZM49.8611 108.241L49.0292 121.519L56.4776 121.003C64.7524 120.448 71.2858 119.994 71.7295 119.4C71.8737 119.09 72.1399 118.585 72.4727 117.953C73.9424 115.146 77.0094 109.312 76.8042 106.938C76.7969 106.813 76.7586 106.692 76.6928 106.585C76.6269 106.479 76.5356 106.39 76.427 106.328C74.863 105.385 69.2781 107.371 67.2648 108.219C67.2177 108.239 67.1657 108.245 67.1155 108.235C67.0653 108.225 67.0193 108.2 66.9834 108.163C66.9475 108.127 66.9234 108.08 66.9143 108.03C66.9051 107.98 66.9113 107.928 66.9321 107.881C67.9526 105.563 69.2171 101.603 68.2687 100.871C68.2267 100.841 68.1786 100.82 68.1278 100.81C68.0771 100.801 68.0248 100.802 67.9747 100.815C66.5549 101.054 63.3825 105.452 62.2789 107.132C62.2378 107.19 62.1763 107.229 62.1069 107.243C58.0512 107.861 53.9577 108.198 49.8555 108.253L49.8611 108.241Z" fill="#231F20"/>
<path d="M112.277 89.7108H112.222C112.185 89.7035 112.149 89.6889 112.118 89.6679C112.087 89.6469 112.06 89.6198 112.039 89.5883C112.019 89.5568 112.005 89.5214 111.998 89.4844C111.991 89.4473 111.992 89.4093 112 89.3724L116.991 65.6406C116.999 65.6036 117.013 65.5684 117.034 65.5371C117.055 65.5059 117.082 65.4791 117.114 65.4584C117.145 65.4378 117.181 65.4236 117.218 65.4168C117.255 65.41 117.293 65.4106 117.33 65.4187C117.404 65.4347 117.468 65.4792 117.51 65.5424C117.551 65.6057 117.566 65.6828 117.551 65.757L112.56 89.4889C112.546 89.5529 112.51 89.6101 112.458 89.6505C112.407 89.691 112.343 89.7123 112.277 89.7108Z" fill="#231F20"/>
<path d="M80.5928 23.3247C80.7021 23.1803 80.8207 23.0432 80.9477 22.9143L82.2899 21.7329C82.341 21.6597 82.409 21.5999 82.4882 21.5586C82.5674 21.5173 82.6554 21.4958 82.7447 21.4958C82.834 21.4958 82.922 21.5173 83.0011 21.5586C83.0803 21.5999 83.1483 21.6597 83.1995 21.7329L86.6325 25.227C86.6809 25.3123 86.751 25.3833 86.8358 25.4327C86.9206 25.4821 87.0169 25.5081 87.115 25.5081C87.2131 25.5081 87.3095 25.4821 87.3943 25.4327C87.479 25.3833 87.5492 25.3123 87.5975 25.227L95.6339 17.2295C95.6818 17.1428 95.7521 17.0705 95.8375 17.0202C95.9228 16.9699 96.0201 16.9434 96.1192 16.9434C96.2182 16.9434 96.3155 16.9699 96.4008 17.0202C96.4862 17.0705 96.5565 17.1428 96.6045 17.2295L98.0132 18.6493C98.0853 18.7006 98.1441 18.7683 98.1847 18.847C98.2252 18.9256 98.2464 19.0128 98.2464 19.1013C98.2464 19.1898 98.2252 19.277 98.1847 19.3556C98.1441 19.4342 98.0853 19.502 98.0132 19.5533L87.5532 29.9967C87.5013 30.0624 87.4351 30.1156 87.3597 30.1522C87.2843 30.1887 87.2016 30.2077 87.1178 30.2077C87.034 30.2077 86.9513 30.1887 86.8759 30.1522C86.8005 30.1156 86.7343 30.0624 86.6824 29.9967C84.7191 27.9705 82.7576 25.9369 80.798 23.8959C80.7201 23.799 80.6514 23.695 80.5928 23.5853V23.3247Z" fill="#231F20"/>
<path d="M87.1199 30.484C86.9996 30.4802 86.8814 30.4516 86.7726 30.4001C86.6638 30.3486 86.5668 30.2752 86.4876 30.1845L80.6032 24.0838C80.5342 24.0008 80.4729 23.9117 80.4202 23.8176L80.3647 23.7288C80.3359 23.6842 80.3205 23.6322 80.3203 23.5791V23.3018C80.3195 23.2363 80.3432 23.173 80.3869 23.1243L80.4923 22.9967C80.5753 22.8886 80.6662 22.7866 80.764 22.6917C81.0802 22.3977 81.4074 22.1038 81.729 21.8154L82.1117 21.4771C82.1922 21.3829 82.2926 21.3078 82.4058 21.2574C82.519 21.207 82.642 21.1825 82.7658 21.1857C82.8896 21.1889 83.0112 21.2197 83.1216 21.2758C83.232 21.332 83.3285 21.4121 83.404 21.5104L86.8315 25.0044C86.9074 25.0952 87.0104 25.1594 87.1254 25.1874C87.2208 25.1698 87.3092 25.1255 87.3806 25.0599L95.4113 17.0624C95.4974 16.9622 95.6025 16.8802 95.7206 16.8212C95.8387 16.7621 95.9673 16.7272 96.0991 16.7185C96.3618 16.7416 96.6048 16.8671 96.7757 17.0679L98.1844 18.4877C98.2788 18.5668 98.3548 18.6657 98.4069 18.7773C98.459 18.889 98.4859 19.0107 98.4859 19.1338C98.4859 19.257 98.459 19.3787 98.4069 19.4904C98.3548 19.602 98.2788 19.7008 98.1844 19.78L87.7466 30.1956C87.6671 30.2836 87.5705 30.3545 87.4628 30.4041C87.3551 30.4536 87.2384 30.4808 87.1199 30.484ZM80.8694 23.5236V23.5624C80.8999 23.6172 80.9351 23.6692 80.9748 23.7177C82.9344 25.7476 84.8959 27.7812 86.8592 29.8185C86.9168 29.8912 87.0003 29.9388 87.0922 29.9516C87.1839 29.9376 87.2681 29.8926 87.3306 29.824L97.7906 19.3806C97.9737 19.1976 97.9737 19.0645 97.7906 18.8704L96.3819 17.4561C96.3007 17.373 96.2022 17.3087 96.0935 17.2676C95.9805 17.2967 95.8796 17.3608 95.8051 17.4506L87.791 25.4259C87.7068 25.5236 87.6042 25.6038 87.4891 25.6619C87.3739 25.7199 87.2485 25.7547 87.1199 25.7642C86.9886 25.7547 86.8605 25.7189 86.7433 25.6589C86.6261 25.5988 86.5222 25.5159 86.4377 25.4148L83.0102 21.9208C82.805 21.71 82.7052 21.71 82.4556 21.9208L82.0785 22.2646C81.7568 22.553 81.4351 22.8192 81.119 23.1298C81.0393 23.2077 80.9651 23.2911 80.8971 23.3794L80.8528 23.4349L80.8694 23.5236Z" fill="#231F20"/>
<path d="M82.1338 88.8007L83.7089 85.168L98.3895 87.7636V91.5959L82.1338 88.8007Z" fill="#231F20"/>
<path d="M98.3886 91.8733H98.3442L82.0885 89.1002C82.0463 89.0949 82.006 89.0796 81.971 89.0555C81.9359 89.0315 81.9072 88.9994 81.8871 88.9619C81.867 88.9244 81.8562 88.8827 81.8555 88.8402C81.8548 88.7977 81.8644 88.7556 81.8833 88.7175L83.4529 85.0848C83.4772 85.0265 83.5206 84.9782 83.5761 84.9479C83.6316 84.9177 83.6957 84.9073 83.7579 84.9184L98.4385 87.514C98.5031 87.5258 98.5614 87.5602 98.6031 87.611C98.6447 87.6618 98.667 87.7257 98.6659 87.7913V91.6126C98.666 91.6529 98.657 91.6928 98.6397 91.7292C98.6225 91.7657 98.5973 91.7978 98.5661 91.8234C98.5138 91.8586 98.4516 91.8761 98.3886 91.8733ZM82.5322 88.59L98.1113 91.2632V87.991L83.8799 85.4786L82.5322 88.59Z" fill="#231F20"/>
<path d="M51.8851 75.4804C51.6643 75.4706 51.4533 75.3865 51.2861 75.2419C48.6573 73.212 44.1261 55.3313 44.3868 53.2626C44.6751 50.9886 48.4077 47.8995 48.5685 47.7663C48.6281 47.7186 48.7042 47.6965 48.7801 47.7048C48.856 47.7132 48.9255 47.7512 48.9734 47.8107C48.9972 47.8394 49.015 47.8726 49.026 47.9082C49.0369 47.9439 49.0406 47.9813 49.037 48.0184C49.0334 48.0556 49.0225 48.0916 49.0049 48.1245C48.9874 48.1574 48.9634 48.1864 48.9346 48.21C48.8958 48.2433 45.2131 51.2881 44.958 53.3347C44.7084 55.2924 49.1952 72.9014 51.6134 74.7926C51.7409 74.8869 51.8407 74.9257 51.9184 74.898C54.1368 73.9995 60.1599 65.6082 60.2376 65.5251C60.2821 65.4637 60.3489 65.4224 60.4236 65.4099C60.4983 65.3975 60.5749 65.4149 60.6369 65.4585C60.6679 65.48 60.6942 65.5076 60.7144 65.5395C60.7345 65.5713 60.7481 65.6069 60.7543 65.6441C60.7605 65.6813 60.7592 65.7194 60.7505 65.7561C60.7417 65.7928 60.7258 65.8274 60.7035 65.8578C60.4539 66.2072 54.5362 74.471 52.1458 75.4249C52.0638 75.4617 51.975 75.4806 51.8851 75.4804Z" fill="#231F20"/>
<path d="M77.8799 72.2799H77.7745C75.9221 72.0747 72.8994 65.8464 72.5611 65.142C72.5289 65.0729 72.5254 64.9938 72.5514 64.9221C72.5774 64.8503 72.6308 64.7918 72.6998 64.7594C72.7674 64.727 72.8452 64.7229 72.9159 64.7478C72.9866 64.7728 73.0446 64.8248 73.0769 64.8925C74.3026 67.4603 76.6764 71.5811 77.8355 71.7087C77.8976 71.7171 77.9609 71.7068 78.0172 71.6791C78.0735 71.6515 78.1203 71.6077 78.1516 71.5534C79.5603 69.7509 81.4793 59.6347 80.1371 54.6543C80.1167 54.5808 80.1262 54.5021 80.1636 54.4356C80.201 54.369 80.2633 54.3201 80.3368 54.2994C80.3732 54.2894 80.4113 54.2868 80.4487 54.2918C80.4862 54.2967 80.5222 54.3091 80.5548 54.3283C80.5874 54.3474 80.6158 54.3728 80.6383 54.4031C80.6609 54.4334 80.6772 54.4679 80.6862 54.5046C82.0949 59.729 80.1039 69.9838 78.6064 71.9083C78.5232 72.0232 78.414 72.1168 78.2878 72.1814C78.1615 72.246 78.0217 72.2797 77.8799 72.2799Z" fill="#231F20"/>
</svg>
