<svg width="189" height="155" viewBox="0 0 189 155" fill="none" xmlns="http://www.w3.org/2000/svg">
<path d="M188.261 130.592H8.40427C8.31881 130.592 8.23685 130.558 8.17641 130.497C8.11598 130.437 8.08203 130.355 8.08203 130.27C8.08203 130.184 8.11598 130.102 8.17641 130.042C8.23685 129.981 8.31881 129.947 8.40427 129.947H188.261C188.346 129.947 188.428 129.981 188.489 130.042C188.549 130.102 188.583 130.184 188.583 130.27C188.583 130.355 188.549 130.437 188.489 130.497C188.428 130.558 188.346 130.592 188.261 130.592Z" fill="#D1D3D4"/>
<path d="M46.5709 71.1188C72.1274 71.1188 92.845 55.269 92.845 35.7173C92.845 16.1655 72.1274 0.315674 46.5709 0.315674C21.0145 0.315674 0.296875 16.1655 0.296875 35.7173C0.296875 55.269 21.0145 71.1188 46.5709 71.1188Z" fill="white"/>
<path d="M46.5899 71.4412C20.9007 71.4412 0 55.4193 0 35.7174C0 16.0155 20.8813 0 46.5899 0C72.2984 0 93.1861 16.0219 93.1861 35.7174C93.1861 55.4129 72.2662 71.4412 46.5899 71.4412ZM46.5899 0.644485C21.2551 0.644485 0.644485 16.3764 0.644485 35.7174C0.644485 55.0584 21.268 70.7967 46.5899 70.7967C71.9117 70.7967 92.5417 55.0648 92.5417 35.7174C92.5417 16.3699 71.9117 0.644485 46.5899 0.644485Z" fill="#D1D3D4"/>
<path d="M97.9934 20.4879C97.776 20.4944 97.5598 20.5246 97.3489 20.5781C94.9321 21.2226 94.2554 24.5352 96.9687 25.4246C97.3434 25.5262 97.7354 25.5475 98.1189 25.4872C98.5025 25.4269 98.869 25.2863 99.1944 25.0746C99.5199 24.8629 99.797 24.5848 100.008 24.2587C100.218 23.9325 100.358 23.5655 100.417 23.1818C100.46 22.8406 100.43 22.494 100.327 22.1657C100.225 21.8374 100.053 21.535 99.8227 21.2793C99.5926 21.0236 99.3101 20.8205 98.9944 20.6839C98.6788 20.5473 98.3373 20.4804 97.9934 20.4879Z" fill="white"/>
<path d="M97.6854 25.8632C97.4054 25.8629 97.1272 25.8194 96.8605 25.7343C96.2824 25.588 95.7713 25.2491 95.4117 24.7735C95.052 24.2978 94.8651 23.7138 94.8819 23.1177C94.9197 22.4497 95.1712 21.8115 95.5995 21.2974C96.0277 20.7833 96.6099 20.4206 97.26 20.2626C97.5 20.201 97.747 20.1706 97.9948 20.1724C98.3827 20.1647 98.7678 20.2406 99.1238 20.3951C99.4798 20.5496 99.7983 20.779 100.058 21.0677C100.317 21.3564 100.511 21.6976 100.627 22.068C100.742 22.4384 100.777 22.8295 100.727 23.2144C100.674 23.6496 100.524 24.0673 100.287 24.4365C100.051 24.8058 99.7341 25.1172 99.3611 25.3476C98.8639 25.6775 98.282 25.8565 97.6854 25.8632ZM97.9948 20.8169C97.8013 20.815 97.6084 20.8389 97.4212 20.8878C96.9058 21.0098 96.4434 21.2944 96.1022 21.6994C95.761 22.1045 95.5591 22.6085 95.5264 23.137C95.5157 23.5936 95.6622 24.04 95.9415 24.4014C96.2207 24.7628 96.6157 25.0172 97.0603 25.1221C97.3891 25.2082 97.7323 25.2245 98.0679 25.17C98.4034 25.1155 98.7238 24.9914 99.0085 24.8056C99.2932 24.6199 99.5358 24.3766 99.7209 24.0915C99.9059 23.8063 100.029 23.4856 100.083 23.1499C100.122 22.8557 100.097 22.5564 100.01 22.2727C99.9224 21.9889 99.7749 21.7274 99.5773 21.5059C99.3796 21.2844 99.1365 21.1081 98.8645 20.9892C98.5925 20.8703 98.298 20.8115 98.0012 20.8169H97.9948Z" fill="#D1D3D4"/>
<path d="M154.297 86.5025L167.618 83.1254C167.115 82.1716 159.021 57.8809 151.596 53.1569C145.222 47.8592 132.423 47.3565 117.928 46.7765C113.289 46.505 108.635 46.9594 104.136 48.1234C87.2314 52.796 75.3535 76.7708 75.3535 76.7708L92.007 80.0641C92.007 80.0641 89.3582 104.825 87.038 135.013C87.038 135.013 113.578 140.987 155.044 138.661C155.044 138.661 153.903 90.7948 154.297 86.5025Z" fill="#68E1FD"/>
<path d="M113.76 55.1999L99.9805 137.945L127.983 139.969L134.054 50.4629L113.76 55.1999Z" fill="#231F20"/>
<path d="M127.981 140.291L99.985 138.268C99.9401 138.264 99.8964 138.251 99.8565 138.23C99.8166 138.209 99.7814 138.18 99.753 138.145C99.6999 138.073 99.6768 137.983 99.6885 137.894L113.468 55.1483C113.477 55.0863 113.504 55.0284 113.547 54.9823C113.589 54.9363 113.645 54.9043 113.706 54.8905L134.007 50.1471C134.056 50.1346 134.107 50.1345 134.155 50.1469C134.204 50.1593 134.248 50.1838 134.285 50.218C134.323 50.2497 134.354 50.2902 134.374 50.3361C134.395 50.3821 134.404 50.4322 134.401 50.4823L128.329 139.988C128.327 140.03 128.316 140.071 128.297 140.109C128.278 140.147 128.252 140.18 128.22 140.208C128.188 140.237 128.15 140.259 128.109 140.273C128.068 140.288 128.025 140.294 127.981 140.291ZM100.359 137.681L127.685 139.66L133.704 50.9012L114.035 55.4964L100.359 137.681Z" fill="#231F20"/>
<path d="M115.601 43.1094L113.023 53.9175C113.023 53.9175 115.234 61.2066 122.562 60.6459C124.729 60.4618 126.829 59.7972 128.707 58.7002C130.585 57.6032 132.196 56.1015 133.421 54.3041L136.573 34.3895C136.573 34.3895 131.797 30.7482 135.181 19.6437C129.008 21.1843 122.534 21.0351 116.439 19.2119C116.439 19.2119 111.238 31.006 111.199 36.613C111.161 42.22 115.601 43.1094 115.601 43.1094Z" fill="white"/>
<path d="M121.795 60.9876C114.931 60.9876 112.772 54.0723 112.727 53.9949C112.714 53.9398 112.714 53.8825 112.727 53.8274L115.228 43.3158C114.164 42.9742 110.864 41.4919 110.897 36.5938C110.935 30.9868 115.949 19.5536 116.169 19.0703C116.199 18.9987 116.254 18.9407 116.324 18.9075C116.394 18.8742 116.474 18.8679 116.549 18.8898C122.588 20.6803 128.995 20.8293 135.11 19.3216C135.166 19.3063 135.226 19.306 135.282 19.3206C135.339 19.3353 135.391 19.3646 135.432 19.4054C135.474 19.4467 135.503 19.4987 135.517 19.5556C135.53 19.6125 135.528 19.672 135.51 19.7276C133.802 25.3411 134.221 28.9631 134.917 31.0126C135.256 32.2072 135.913 33.2874 136.818 34.1383C136.863 34.1733 136.899 34.2199 136.92 34.2731C136.942 34.3264 136.949 34.3844 136.94 34.4412L133.782 54.3558C133.778 54.3979 133.763 54.438 133.737 54.4718C132.48 56.3151 130.828 57.8558 128.902 58.9826C126.976 60.1095 124.824 60.7943 122.601 60.9876C122.323 60.9876 122.053 60.9876 121.795 60.9876ZM113.372 53.8982C113.642 54.7167 115.891 60.82 122.555 60.3431C124.659 60.1557 126.695 59.5091 128.522 58.449C130.348 57.3889 131.919 55.9411 133.125 54.2076L136.244 34.5379C135.432 33.8032 131.913 29.9169 134.723 20.1208C128.748 21.4653 122.531 21.2925 116.639 19.6181C115.879 21.3775 111.567 31.6119 111.535 36.6325C111.496 41.885 115.498 42.7744 115.666 42.8131C115.709 42.8189 115.75 42.8348 115.786 42.8594C115.822 42.884 115.851 42.9167 115.872 42.9549C115.897 42.9902 115.913 43.0303 115.921 43.0725C115.929 43.1147 115.928 43.1581 115.917 43.1998L113.372 53.8982Z" fill="#231F20"/>
<path d="M132.513 33.3716C132.903 32.4461 133.581 31.6709 134.447 31.161C135.284 30.7311 136.188 30.4478 137.121 30.3232C137.626 30.2074 138.15 30.2074 138.655 30.3232C139.001 30.4349 139.321 30.6146 139.596 30.8517C140.299 31.3475 140.8 32.0795 141.007 32.914C141.095 33.5979 141.013 34.2929 140.769 34.9377C140.565 35.6615 140.266 36.355 139.88 37.0001C139.478 37.6334 138.955 38.1807 138.34 38.6101C137.726 39.0395 137.032 39.3425 136.299 39.5014C135.566 39.6603 134.809 39.672 134.072 39.5358C133.334 39.3996 132.632 39.1182 132.004 38.708" fill="white"/>
<path d="M135.134 39.9195C133.971 39.9212 132.831 39.5854 131.854 38.9528C131.783 38.9056 131.734 38.8323 131.717 38.749C131.7 38.6657 131.717 38.5792 131.764 38.5081C131.786 38.4719 131.815 38.4406 131.85 38.4161C131.885 38.3915 131.924 38.3742 131.966 38.3652C132.007 38.3561 132.05 38.3556 132.092 38.3635C132.133 38.3715 132.173 38.3878 132.209 38.4114C132.8 38.7979 133.463 39.0628 134.158 39.191C134.853 39.3192 135.567 39.308 136.258 39.1581C136.948 39.0082 137.602 38.7226 138.182 38.3178C138.761 37.9131 139.255 37.3972 139.633 36.8002C140.004 36.1812 140.293 35.516 140.49 34.8217C140.714 34.2234 140.791 33.5804 140.716 32.9462C140.519 32.1913 140.062 31.5297 139.427 31.0772C139.183 30.868 138.9 30.7082 138.595 30.6067C138.139 30.5043 137.666 30.5043 137.21 30.6067C136.311 30.7269 135.439 30.9994 134.632 31.4123C133.815 31.8792 133.174 32.6016 132.808 33.4682C132.774 33.5469 132.71 33.6087 132.63 33.6401C132.55 33.6715 132.461 33.67 132.383 33.6358C132.304 33.6016 132.242 33.5376 132.211 33.4578C132.179 33.378 132.181 33.2891 132.215 33.2104C132.641 32.2171 133.378 31.3892 134.316 30.8516C135.184 30.3995 136.124 30.1029 137.094 29.9751C137.644 29.8429 138.219 29.8429 138.769 29.9751C139.155 30.0982 139.513 30.2977 139.82 30.5616C140.58 31.1082 141.116 31.912 141.328 32.8237C141.426 33.5611 141.342 34.3113 141.083 35.0086C140.879 35.7577 140.573 36.4754 140.174 37.1418C139.749 37.8104 139.196 38.3885 138.547 38.843C137.897 39.2975 137.165 39.6196 136.391 39.7906C135.978 39.8784 135.557 39.9216 135.134 39.9195Z" fill="#231F20"/>
<path d="M114.582 48.5172C115.86 48.8765 117.2 48.9577 118.512 48.7554C119.824 48.5531 121.077 48.0719 122.187 47.3442C125.783 44.8565 125.796 43.0713 125.796 43.0713C125.796 43.0713 120.337 45.0047 115.865 43.3226L114.582 48.5172Z" fill="#231F20"/>
<path d="M117.162 49.1933C116.255 49.2007 115.352 49.077 114.481 48.8259C114.404 48.8006 114.34 48.7476 114.301 48.6772C114.261 48.6068 114.25 48.5242 114.268 48.4457L115.557 43.2447C115.584 43.1568 115.644 43.0828 115.725 43.0384C115.766 43.0211 115.81 43.0121 115.854 43.0121C115.898 43.0121 115.942 43.0211 115.983 43.0384C120.294 44.6561 125.65 42.8 125.695 42.7806C125.745 42.7641 125.797 42.7596 125.849 42.7674C125.9 42.7753 125.949 42.7953 125.992 42.8257C126.034 42.8548 126.069 42.8944 126.091 42.9408C126.114 42.9871 126.124 43.0385 126.121 43.09C126.121 43.1673 126.063 45.0621 122.376 47.6014C120.844 48.6569 119.023 49.2129 117.162 49.1933ZM114.971 48.291C116.163 48.5798 117.401 48.6213 118.609 48.4129C119.817 48.2045 120.97 47.7506 121.996 47.0794C124.29 45.4939 125.07 44.2114 125.334 43.554C123.852 43.9858 119.74 44.9654 116.086 43.7474L114.971 48.291Z" fill="#231F20"/>
<path d="M123.367 27.4746C123.367 27.4746 118.605 32.2245 119.288 33.3523C119.971 34.4802 122.51 34.3319 122.51 34.3319" fill="white"/>
<path d="M122.207 34.6283C121.427 34.6283 119.629 34.5123 118.985 33.4875C118.231 32.2372 121.956 28.3703 123.116 27.2102C123.176 27.1496 123.259 27.1155 123.345 27.1155C123.43 27.1155 123.513 27.1496 123.573 27.2102C123.634 27.2709 123.668 27.3532 123.668 27.439C123.668 27.5249 123.634 27.6072 123.573 27.6678C121.086 30.1491 119.236 32.6561 119.539 33.1524C120.016 33.9387 121.833 34.016 122.491 33.9773C122.533 33.9747 122.575 33.9805 122.616 33.9943C122.656 34.0081 122.693 34.0297 122.724 34.0579C122.756 34.086 122.782 34.1201 122.8 34.1583C122.819 34.1965 122.83 34.2379 122.832 34.2803C122.836 34.3228 122.831 34.3656 122.817 34.406C122.804 34.4465 122.782 34.4839 122.754 34.5158C122.725 34.5477 122.691 34.5736 122.652 34.5918C122.614 34.61 122.572 34.6202 122.529 34.6218L122.207 34.6283Z" fill="#231F20"/>
<path d="M128.779 28.0339C128.859 27.3194 128.511 26.6939 128.001 26.6368C127.492 26.5798 127.014 27.1128 126.934 27.8273C126.854 28.5418 127.202 29.1673 127.711 29.2244C128.221 29.2814 128.699 28.7484 128.779 28.0339Z" fill="#231F20"/>
<path d="M120.126 26.6502C120.413 25.991 120.265 25.2907 119.795 25.0861C119.325 24.8814 118.711 25.25 118.424 25.9092C118.137 26.5684 118.285 27.2687 118.755 27.4733C119.225 27.6779 119.839 27.3094 120.126 26.6502Z" fill="#231F20"/>
<path d="M126.964 40.1708C126.88 40.1699 126.799 40.1378 126.738 40.0805C123.877 37.335 116.143 35.6465 116.065 35.6271C116.024 35.6187 115.985 35.6022 115.95 35.5784C115.915 35.5546 115.886 35.5241 115.863 35.4886C115.84 35.4532 115.824 35.4136 115.817 35.372C115.81 35.3305 115.811 35.288 115.821 35.2469C115.829 35.2054 115.846 35.166 115.869 35.1309C115.893 35.0958 115.923 35.0658 115.959 35.0424C115.994 35.0191 116.033 35.0029 116.075 34.9949C116.117 34.9868 116.159 34.9871 116.201 34.9955C116.523 35.0664 124.186 36.7421 127.157 39.6165C127.203 39.6608 127.235 39.7178 127.248 39.7802C127.262 39.8426 127.257 39.9076 127.233 39.967C127.21 40.0264 127.169 40.0775 127.116 40.1138C127.064 40.15 127.002 40.1699 126.938 40.1708H126.964Z" fill="#231F20"/>
<path d="M166.981 109.459C166.911 109.46 166.843 109.437 166.787 109.395L157.281 102.099C157.214 102.046 157.17 101.969 157.158 101.884C157.146 101.798 157.167 101.712 157.217 101.642C157.27 101.576 157.347 101.533 157.431 101.522C157.515 101.511 157.6 101.533 157.668 101.584L167.181 108.886C167.232 108.928 167.27 108.984 167.289 109.048C167.307 109.112 167.305 109.18 167.283 109.243C167.261 109.306 167.22 109.361 167.166 109.399C167.112 109.438 167.047 109.459 166.981 109.459Z" fill="#231F20"/>
<path d="M140.794 29.3238H140.71C140.628 29.3012 140.559 29.2472 140.517 29.1736C140.474 29.1 140.463 29.0127 140.485 28.9307C141.445 25.3602 142.379 21.7253 143.262 18.1162L143.359 17.736C143.804 16.2186 144.05 14.6504 144.094 13.0699C144.055 11.9356 143.54 11.7809 141.915 11.7809C141.873 11.7824 141.83 11.7751 141.79 11.7596C141.75 11.7441 141.714 11.7207 141.683 11.6907C141.623 11.6308 141.589 11.55 141.587 11.4651C141.573 10.6708 141.378 9.89009 141.016 9.18292C140.654 8.47574 140.135 7.86088 139.499 7.38552C137.346 5.80653 134.194 5.45206 130.843 6.50257L130.676 6.55413C127.337 7.57242 124.456 8.44891 120.809 8.58426C120.106 8.58426 119.378 8.58426 118.675 8.58426C117.089 8.51423 115.501 8.62014 113.938 8.90006C112.963 9.14175 112.005 9.44747 111.07 9.81522C110.268 10.0557 109.515 10.4377 108.847 10.9431C108.181 11.5909 107.664 12.376 107.332 13.2439C106.955 14.0024 106.684 14.8091 106.527 15.6414C106.153 18.2193 107.816 20.4815 108.866 21.6222C109.511 22.3311 110.49 23.1238 111.444 22.8661C111.486 22.8546 111.531 22.8516 111.574 22.8573C111.618 22.8629 111.659 22.8771 111.697 22.8989C111.735 22.9208 111.769 22.9499 111.796 22.9846C111.822 23.0193 111.842 23.059 111.853 23.1013C111.865 23.1436 111.868 23.1878 111.862 23.2312C111.857 23.2747 111.842 23.3166 111.821 23.3546C111.799 23.3926 111.77 23.426 111.735 23.4527C111.7 23.4795 111.66 23.4991 111.618 23.5105C110.613 23.7877 109.498 23.2914 108.396 22.0798C107.294 20.8681 105.483 18.3869 105.902 15.5705C106.065 14.6751 106.353 13.8072 106.759 12.9925C107.138 12.0361 107.718 11.1723 108.46 10.4597C109.186 9.90635 110.005 9.48529 110.877 9.21585C111.838 8.83594 112.824 8.52368 113.829 8.28135C115.439 7.9865 117.078 7.87408 118.714 7.94622C119.41 7.94622 120.125 7.94622 120.821 7.94622C124.379 7.81088 127.228 6.94726 130.521 5.94187L130.688 5.89031C134.233 4.81402 137.591 5.17493 139.911 6.86993C140.583 7.3744 141.139 8.01661 141.543 8.75353C141.946 9.49046 142.187 10.3051 142.251 11.1429C143.411 11.1429 144.712 11.2718 144.77 13.0763C144.731 14.7156 144.477 16.3427 144.016 17.9164L143.92 18.2967C143.037 21.9058 142.096 25.5471 141.136 29.124C141.109 29.1905 141.061 29.2463 140.999 29.2825C140.937 29.3187 140.865 29.3332 140.794 29.3238Z" fill="#231F20"/>
<path d="M130.186 56.1605C130.186 56.1605 126.545 52.6674 125.578 48.3945C124.612 44.1215 124.985 43.1999 124.322 43.0517C123.658 42.9034 122.536 43.3546 121.705 44.8111C120.874 46.2677 121.099 51.3913 122.453 53.4537C123.806 55.516 130.186 56.1605 130.186 56.1605Z" fill="white"/>
<path d="M130.186 56.4762H130.153C129.889 56.444 123.605 55.7866 122.181 53.6212C120.757 51.4557 120.512 46.2289 121.427 44.6435C122.342 43.058 123.554 42.5489 124.385 42.71C124.985 42.8389 125.03 43.3545 125.204 44.4437C125.313 45.2428 125.474 46.4545 125.893 48.3106C126.828 52.4353 130.372 55.8833 130.405 55.9155C130.451 55.9632 130.482 56.0234 130.495 56.0886C130.508 56.1539 130.501 56.2214 130.476 56.2829C130.45 56.3391 130.41 56.387 130.358 56.4212C130.307 56.4553 130.247 56.4744 130.186 56.4762ZM124.076 43.3481C123.554 43.3481 122.677 43.7476 121.981 44.9593C121.285 46.1709 121.401 51.2623 122.722 53.2667C123.612 54.6266 127.234 55.4128 129.328 55.7222C128.22 54.4977 126.003 51.7199 125.268 48.4588C124.843 46.5898 124.675 45.3589 124.566 44.5468C124.437 43.6123 124.392 43.3932 124.25 43.361C124.192 43.3519 124.134 43.3497 124.076 43.3545V43.3481Z" fill="#231F20"/>
<path d="M76.3654 77.2222C76.3654 77.2222 60.1759 117.058 66.247 129.174C72.318 141.29 132.03 146.704 132.03 146.704C132.03 146.704 139.622 149.927 141.98 150.416C144.339 150.906 153.285 151.428 153.285 151.428C153.285 151.428 149.908 152.073 151.087 153.11C152.266 154.148 158.821 154.122 159.523 151.763C160.226 149.405 158.344 139.956 156.301 138.435C154.258 136.914 131.334 131.346 129.651 131.185C127.969 131.024 90.1832 117.915 90.1832 117.915L95.0748 80.9215" fill="white"/>
<path d="M154.316 154.09C152.814 154.09 151.429 153.839 150.881 153.368C150.746 153.277 150.641 153.147 150.58 152.995C150.519 152.843 150.505 152.677 150.539 152.517C150.633 152.315 150.767 152.134 150.933 151.985C151.099 151.837 151.294 151.724 151.506 151.654C148.767 151.48 143.65 151.112 141.916 150.739C139.622 150.249 132.648 147.323 131.952 147.033C128.872 146.749 72.0152 141.413 65.957 129.316C63.3791 124.205 64.3329 113.848 68.7219 98.5546C71.9443 87.1988 76.0303 77.2028 76.069 77.0997C76.1015 77.0202 76.1642 76.9569 76.2434 76.9237C76.3225 76.8904 76.4117 76.89 76.4911 76.9225C76.5706 76.955 76.6339 77.0177 76.6672 77.0968C76.7004 77.176 76.7009 77.2651 76.6684 77.3446C76.5073 77.7442 60.6014 117.154 66.5371 129.032C72.4728 140.91 131.463 146.343 132.062 146.395C132.092 146.388 132.122 146.388 132.152 146.395C132.229 146.427 139.744 149.617 142.051 150.088C144.359 150.558 153.214 151.087 153.304 151.093C153.382 151.098 153.455 151.13 153.511 151.184C153.567 151.239 153.601 151.312 153.607 151.39C153.611 151.468 153.587 151.544 153.54 151.607C153.493 151.669 153.425 151.713 153.349 151.731C152.376 151.924 151.242 152.376 151.164 152.659C151.164 152.704 151.222 152.788 151.3 152.853C151.944 153.407 155.038 153.716 157.345 153.027C158.08 152.801 159.008 152.382 159.214 151.66C159.897 149.276 157.925 140.059 156.127 138.68C154.329 137.301 131.682 131.694 129.639 131.494C127.931 131.32 91.614 118.74 90.093 118.205C90.0234 118.182 89.964 118.135 89.9252 118.072C89.8864 118.01 89.8705 117.936 89.8803 117.863L94.772 80.8635C94.7775 80.8212 94.7913 80.7804 94.8125 80.7434C94.8338 80.7064 94.8622 80.674 94.896 80.6479C94.9298 80.6219 94.9684 80.6028 95.0096 80.5917C95.0508 80.5805 95.0938 80.5777 95.1361 80.5832C95.1784 80.5887 95.2192 80.6025 95.2562 80.6237C95.2932 80.645 95.3257 80.6734 95.3517 80.7072C95.3777 80.741 95.3968 80.7796 95.408 80.8208C95.4191 80.862 95.422 80.905 95.4165 80.9473L90.557 117.683C103.685 122.233 128.414 130.721 129.71 130.85C131.005 130.979 154.31 136.508 156.52 138.165C158.731 139.821 160.529 149.424 159.839 151.841C159.614 152.633 158.814 153.259 157.538 153.645C156.49 153.943 155.406 154.093 154.316 154.09Z" fill="#231F20"/>
<path d="M144.848 88.8616C144.848 88.8616 133.975 61.0199 130.92 56.4376C127.865 51.8553 114.46 40.667 112.791 41.782C111.122 42.8969 111.611 44.1408 112.307 45.0044C113.004 45.868 116.89 48.5426 116.89 48.5426C116.89 48.5426 112.514 46.5318 112.378 49.1871C112.243 51.8424 115.601 53.4278 115.601 53.4278C115.601 53.4278 111.921 50.7146 111.779 53.6341C111.761 54.4855 111.996 55.3231 112.455 56.0404C112.914 56.7577 113.576 57.3222 114.357 57.6621C114.357 57.6621 110.438 54.3366 110.812 57.8039C111.457 63.5011 122.903 70.3069 122.903 70.3069L127.762 117.657C127.762 117.657 129.502 145.119 147.026 144.287C169.512 143.218 176.028 110.774 164.788 83.3384" fill="white"/>
<path d="M146.215 144.584C129.303 144.584 127.421 117.902 127.402 117.631L122.562 70.4551C121.183 69.6172 111.064 63.3013 110.459 57.7909C110.355 56.85 110.549 56.2442 111.032 55.9864C111.326 55.8462 111.661 55.8186 111.973 55.909C111.567 55.2013 111.377 54.3904 111.425 53.576C111.402 53.2714 111.466 52.9665 111.608 52.6963C111.751 52.4261 111.967 52.2016 112.231 52.0485C112.517 51.9249 112.832 51.8847 113.14 51.9325C112.421 51.1786 112.029 50.1707 112.05 49.129C112.049 48.8538 112.116 48.5826 112.247 48.3404C112.377 48.0982 112.567 47.8929 112.798 47.7434C113.489 47.4273 114.27 47.3656 115.002 47.5694C113.961 46.8514 112.976 46.0542 112.057 45.1848C111.789 44.9356 111.585 44.6247 111.465 44.2791C111.344 43.9335 111.309 43.5636 111.364 43.2017C111.419 42.8397 111.561 42.4965 111.778 42.2019C111.995 41.9073 112.281 41.6702 112.611 41.5112C113.836 40.6927 118.734 44.4243 121.537 46.7251C125.153 49.6833 129.535 53.7822 131.205 56.257C134.24 60.82 144.739 87.6048 145.164 88.7456C145.193 88.8251 145.19 88.9129 145.155 88.9901C145.12 89.0674 145.056 89.1277 144.977 89.158C144.938 89.1745 144.897 89.1829 144.855 89.1827C144.812 89.1825 144.771 89.1737 144.732 89.1568C144.693 89.1399 144.659 89.1153 144.63 89.0845C144.601 89.0536 144.579 89.0173 144.565 88.9776C144.455 88.7004 133.666 61.1229 130.663 56.618C129.265 54.5169 125.443 50.7402 121.144 47.2214C115.943 42.9613 113.41 41.7819 112.985 42.0655C112.743 42.194 112.531 42.3725 112.363 42.5892C112.195 42.8059 112.076 43.0557 112.012 43.3222C112.001 43.5909 112.044 43.859 112.139 44.1104C112.234 44.3619 112.38 44.5914 112.566 44.7852C113.114 45.4297 116.014 47.5178 117.077 48.2654C117.143 48.3123 117.188 48.3819 117.205 48.4606C117.222 48.5393 117.208 48.6214 117.168 48.6908C117.129 48.7618 117.065 48.8154 116.988 48.8406C116.912 48.8657 116.828 48.8606 116.755 48.8261C116.046 48.4974 114.016 47.7756 113.133 48.3105C112.992 48.4046 112.878 48.5335 112.801 48.6848C112.724 48.8361 112.688 49.0047 112.695 49.1741C112.618 50.6694 113.791 51.8165 114.699 52.4804C115.07 52.6679 115.425 52.8833 115.763 53.1248C115.824 53.1735 115.865 53.2427 115.879 53.3196C115.893 53.3964 115.878 53.4757 115.838 53.5427C115.798 53.6096 115.735 53.6597 115.661 53.6837C115.586 53.7076 115.506 53.7037 115.434 53.6727C115.054 53.4872 114.69 53.2716 114.345 53.0282C113.7 52.6866 112.933 52.4546 112.508 52.6544C112.244 52.7768 112.096 53.1055 112.07 53.6275C112.039 54.1354 112.116 54.644 112.295 55.1203C112.473 55.5966 112.75 56.03 113.107 56.3924C113.609 56.6851 114.086 57.0193 114.532 57.3913C114.59 57.4413 114.628 57.5102 114.64 57.5857C114.652 57.6613 114.636 57.7386 114.596 57.8038C114.556 57.8695 114.494 57.9186 114.42 57.9423C114.347 57.9659 114.268 57.9625 114.197 57.9327C113.665 57.6914 113.181 57.3575 112.766 56.9466C112.179 56.618 111.625 56.4182 111.335 56.5728C111.045 56.7275 111.026 57.1078 111.097 57.7394C111.696 63.211 122.916 69.933 123.026 69.9846C123.07 70.0102 123.107 70.0456 123.135 70.0881C123.163 70.1306 123.181 70.179 123.187 70.2295L128.047 117.58C128.047 117.863 129.941 144.745 146.969 143.92C154.026 143.585 159.891 140.053 163.944 133.686C171.627 121.627 171.833 101.423 164.454 83.4157C164.423 83.3368 164.424 83.2494 164.457 83.1714C164.489 83.0934 164.55 83.0308 164.628 82.9967C164.707 82.9661 164.796 82.967 164.875 82.9994C164.954 83.0317 165.018 83.093 165.053 83.1707C172.503 101.365 172.278 121.801 164.486 134.034C160.322 140.575 154.271 144.216 147.001 144.564L146.215 144.584Z" fill="#231F20"/>
<path d="M144.287 87.792C144.287 87.792 153.059 111.638 155.308 119.501L144.287 87.792Z" fill="white"/>
<path d="M155.309 119.823C155.239 119.824 155.171 119.802 155.115 119.76C155.059 119.718 155.018 119.658 155 119.591C152.776 111.825 144.076 88.1398 143.985 87.9013C143.97 87.8612 143.962 87.8184 143.963 87.7753C143.964 87.7322 143.974 87.6898 143.991 87.6506C144.009 87.6113 144.035 87.576 144.066 87.5467C144.098 87.5174 144.135 87.4948 144.176 87.4801C144.216 87.4655 144.259 87.4591 144.302 87.4614C144.345 87.4637 144.387 87.4745 144.426 87.4934C144.465 87.5122 144.499 87.5386 144.528 87.5711C144.556 87.6035 144.578 87.6413 144.591 87.6822C144.675 87.9206 153.388 111.625 155.618 119.417C155.641 119.499 155.63 119.586 155.589 119.661C155.548 119.735 155.48 119.791 155.399 119.816L155.309 119.823Z" fill="#231F20"/>
<path d="M96.4999 64.8545C96.4999 65.5312 95.1465 78.1244 95.1465 78.1244L96.4999 64.8545Z" fill="#231F20"/>
<path d="M95.1458 78.4402H95.1135C95.0291 78.4305 94.9519 78.3878 94.8987 78.3214C94.8456 78.255 94.8209 78.1703 94.83 78.0858C95.2038 74.5926 96.1769 65.3958 96.1769 64.8545C96.1769 64.769 96.2109 64.687 96.2713 64.6266C96.3317 64.5662 96.4137 64.5322 96.4992 64.5322C96.5846 64.5322 96.6666 64.5662 96.727 64.6266C96.7875 64.687 96.8214 64.769 96.8214 64.8545C96.8214 65.5376 95.5324 77.6411 95.4744 78.1566C95.4648 78.2364 95.4258 78.3096 95.365 78.3621C95.3042 78.4145 95.226 78.4424 95.1458 78.4402Z" fill="#231F20"/>
<path d="M38.5197 40.9701C38.1459 36.1558 40.0406 32.9914 45.3834 29.1631C50.1977 25.7731 51.5705 24.0072 51.3643 21.3197C51.1129 18.0973 48.1998 16.325 43.856 16.6601C38.4874 17.079 35.4455 20.8042 35.5292 26.9719L23.7803 27.0105C23.2647 15.2229 30.9534 6.92194 43.1148 5.98099C53.9293 5.14316 62.327 11.0789 63.0166 19.9985C63.4419 25.4444 61.0831 29.5176 55.0443 33.8743C50.1655 37.5092 49.0892 38.94 49.3019 41.7048L49.5146 44.4697L38.8548 45.3139L38.5197 40.9701ZM38.5197 50.8178L51.1 49.8382L52.0474 62.0834L39.4348 63.0502L38.5197 50.8178Z" fill="black"/>
<path d="M104.496 28.4219C106.346 28.7957 106.546 25.6313 104.593 25.9858C104.304 26.0244 104.038 26.1636 103.842 26.379C103.646 26.5944 103.532 26.8721 103.521 27.1632C103.509 27.4543 103.6 27.7402 103.779 27.9704C103.957 28.2007 104.212 28.3606 104.496 28.4219Z" fill="white"/>
<path d="M104.793 28.7637C104.671 28.7632 104.55 28.7503 104.432 28.725C104.079 28.6691 103.759 28.4874 103.531 28.2137C103.302 27.9401 103.18 27.5928 103.188 27.2363C103.19 26.8566 103.327 26.4899 103.573 26.201C103.82 25.9121 104.16 25.7196 104.535 25.6573C104.814 25.5857 105.108 25.6017 105.378 25.7032C105.648 25.8047 105.88 25.9866 106.043 26.2244C106.223 26.5168 106.315 26.8554 106.305 27.1988C106.296 27.5423 106.187 27.8756 105.991 28.1579C105.858 28.3509 105.678 28.5075 105.469 28.6133C105.26 28.7191 105.027 28.7708 104.793 28.7637ZM104.593 28.1192C104.759 28.1675 104.935 28.1616 105.098 28.1025C105.26 28.0434 105.399 27.9341 105.495 27.7905C105.61 27.6142 105.674 27.4099 105.68 27.1998C105.687 26.9896 105.637 26.7816 105.534 26.5982C105.439 26.4684 105.306 26.3714 105.154 26.3206C105.001 26.2697 104.837 26.2677 104.683 26.3147C104.457 26.3536 104.252 26.4702 104.102 26.6443C103.953 26.8184 103.869 27.0391 103.865 27.2685C103.858 27.4755 103.929 27.6775 104.064 27.8349C104.199 27.9922 104.387 28.0936 104.593 28.1192Z" fill="#D1D3D4"/>
<path d="M41.3824 110.613C41.4644 109.525 41.2029 108.438 40.6348 107.507C40.0775 106.876 39.5526 106.218 39.0622 105.535C38.4177 104.246 38.8624 102.783 38.7077 101.397C38.5527 100.203 37.9686 99.1054 37.0643 98.3099C36.2458 97.5752 35.1953 97.0725 34.409 96.3055C33.1201 95.0552 32.7592 93.2894 32.0309 91.7233C30.924 89.4379 29.1181 87.5643 26.875 86.374C28.2735 88.8682 25.0898 92.0391 26.5334 94.5139C26.991 95.2937 27.8611 95.8673 28.1962 96.6987C29.0082 98.703 26.3143 100.875 27.1715 102.866C27.6033 103.859 28.8085 104.433 29.3627 105.373C30.1168 106.662 29.5238 108.183 29.5883 109.621C29.6721 111.599 31.0319 113.365 32.6431 114.738C33.6485 115.589 34.7635 116.33 35.8656 117.097C37.1545 118.018 37.7152 118.991 38.856 117.509C40.4122 115.539 41.2974 113.122 41.3824 110.613Z" fill="#D1D3D4"/>
<path d="M44.282 111.548C43.8631 110.014 43.5666 108.357 44.282 106.914C45.0812 105.277 47.0597 104.123 47.2917 102.357C47.4464 101.197 46.7826 100.024 47.0404 98.8835C47.2982 97.7427 48.3294 96.95 49.2252 96.1186C51.1858 94.2529 52.3865 91.7276 52.5959 89.0293C53.9204 90.4105 55.0091 91.9999 55.8183 93.734C56.2023 94.5852 56.3607 95.5208 56.2783 96.4509C56.1959 97.381 55.8754 98.2742 55.3478 99.0446C55.0207 99.3957 54.7471 99.7931 54.5358 100.224C54.1426 101.352 55.2318 102.402 55.8247 103.446C56.1573 104.05 56.2979 104.74 56.2277 105.425C56.1574 106.11 55.8797 106.758 55.4316 107.281C54.2909 108.57 52.0932 109.034 51.5647 110.568C51.4238 111.139 51.3566 111.726 51.3649 112.315C51.1979 113.381 50.712 114.371 49.9711 115.156C49.2302 115.94 48.2692 116.482 47.2144 116.71C45.861 116.994 45.9254 116.523 45.6483 115.518C45.2358 114.203 44.6558 112.895 44.282 111.548Z" fill="#D1D3D4"/>
<path d="M39.9891 100.54C39.0288 97.6007 38.6421 94.5265 37.6367 91.6005C36.7685 89.2996 35.719 87.0713 34.498 84.9365L38.6099 86.4704C39.8988 86.9666 41.3554 87.5467 41.9805 88.6874C43.0633 90.6789 41.1169 93.231 42.2512 95.1967C42.7477 95.8412 43.2928 96.4466 43.8818 97.0077C45.0934 98.5158 44.9065 100.591 44.2427 102.344C43.9591 103.098 42.7088 107.004 41.5938 105.921C41.1491 105.483 41.1105 103.865 40.9493 103.272C40.64 102.357 40.2855 101.455 39.9891 100.54Z" fill="#D1D3D4"/>
<path d="M39.3963 127.737C38.6745 122.42 38.0494 117.805 38.0429 117.728L37.3984 117.812C37.3984 117.889 38.0429 122.452 38.739 127.737H39.3963Z" fill="#D1D3D4"/>
<path d="M44.9531 127.737C45.836 120.867 46.7512 115.769 47.2668 115.202L46.7899 114.77C46.0745 115.556 45.1078 121.518 44.3086 127.737H44.9531Z" fill="#D1D3D4"/>
<path d="M44.1658 127.737C43.4633 115.318 42.2324 102.995 42.2324 102.834L41.5879 102.898C41.5879 103.06 42.8769 115.35 43.5213 127.737H44.1658Z" fill="#D1D3D4"/>
<path d="M33.0039 120.357H51.23L49.941 134.059C49.7219 136.431 47.0666 138.274 43.8699 138.274H40.3446C37.1222 138.274 34.4927 136.431 34.2671 134.059L33.0039 120.357Z" fill="#D1D3D4"/>
</svg>
